<?xml version="1.0" encoding="utf-8"?>
<!-- Generator: Adobe Illustrator 17.1.0, SVG Export Plug-In . SVG Version: 6.00 Build 0)  -->
<!DOCTYPE svg PUBLIC "-//W3C//DTD SVG 1.1//EN" "http://www.w3.org/Graphics/SVG/1.1/DTD/svg11.dtd">
<svg version="1.1" id="Layer_1" xmlns="http://www.w3.org/2000/svg" xmlns:xlink="http://www.w3.org/1999/xlink" x="0px" y="0px"
	 viewBox="0 0 14.6 19" enable-background="new 0 0 14.6 19" xml:space="preserve">
<g>
	<g>
		<polygon fill="#484949" points="2.2,10.8 4.2,9.7 5.7,9.4 6,9.6 6,9.6 6,9.7 6,9.8 5.8,9.9 5.6,10.1 5.7,10.2 5.9,10.3 6.3,10 
			6.3,10 6.5,9.9 6.7,10.1 6.7,10.3 3.6,11.9 3.5,11.8 2.2,10.9 2.1,10.9 		"/>
		<polygon fill="#484949" points="8.5,11.4 8.5,11.4 8.7,11.6 9.3,12.3 9.3,12.2 9.5,12.2 8.8,11.2 8.8,11.2 8.8,11.2 8.9,11.2 
			8.9,11.2 9.2,11 12.9,16 13.6,16.9 13.8,17.1 13.7,17.2 13.5,17.3 12.6,17.9 12.5,17.9 9.5,13.9 8.3,11.6 8.4,11.5 		"/>
		<polygon fill="#484949" points="9.2,7.4 9.5,7.2 9.8,7 9.9,7 10.1,6.9 10.5,6.7 10.8,6.5 10.9,6.6 11.4,8.1 11.4,8.2 11.6,8.1 
			11.5,8.2 10.5,8.8 10.4,8.8 10.3,8.8 9.9,9.1 9.7,9.2 9.5,9.3 9.4,9.3 8.9,9.3 8.7,9.3 8.6,9.3 8.5,9.3 8.4,9.3 8.3,9.3 8.3,9.3 
			8.2,9.1 8.2,9 8.2,9 8.2,9 8.1,8.9 8.2,8.9 8.6,8.6 8.5,8.3 8,8.5 8,8.5 7.9,8.3 7.9,8.2 7.8,8.1 8.2,7.9 		"/>
	</g>
	<polygon fill="#E8E8E8" points="2,10.9 1.9,11 2,11 3.3,12 3.4,12 3.2,12.1 3.2,12.1 3.2,12.1 3.1,12 2.9,11.9 2.4,11.6 1.9,11.3 
		1.9,11.2 1.8,11.1 1.8,11.1 1.8,11 	"/>
	<g>
		<polygon fill="#AA1E23" points="2.2,10.8 2.1,10.9 2.2,10.9 3.5,11.8 3.6,11.9 3.4,12 3.3,12 2,11 1.9,11 2,10.9 		"/>
		<polygon fill="#AA1E23" points="13.5,17.3 13.7,17.2 13.8,17.1 14,17.5 14,17.6 13.9,17.6 12.9,18.3 12.8,18.3 12.5,17.9 
			12.6,17.9 		"/>
		<polygon fill="#AA1E23" points="0.2,0.4 0.2,0.4 0.2,0.4 0,0.1 		"/>
		<polygon fill="#AA1E23" points="0.6,0.3 0.5,0.4 0.5,0.4 0.4,0.3 0.2,0.1 0.4,0 		"/>
		<polygon fill="#AA1E23" points="0.8,0.8 0.8,0.8 0.9,0.7 1.2,1.1 1.1,1.2 1.1,1.2 0.8,1.2 0.8,1.2 0.5,0.8 0.5,0.8 		"/>
		<polygon fill="#AA1E23" points="11.1,6.5 11.6,8.1 11.6,8.1 11.8,8 11.6,8.1 11.4,8.2 11.4,8.1 10.9,6.6 10.8,6.5 11,6.4 		"/>
	</g>
	<g>
		<polygon fill="#808285" points="13.2,18.6 13.3,18.6 13.8,18.2 14.2,18 14.2,18 14.3,17.9 14.6,18.2 14.4,18.4 14.3,18.4 
			14.3,18.4 14.3,18.4 14.3,18.5 14.3,18.5 14.3,18.5 14.1,18.6 14.1,18.7 14,18.7 14,18.8 14,18.8 14,18.8 14,18.8 13.3,19 
			13.1,18.7 13.1,18.7 		"/>
		<polygon fill="#808285" points="11.4,6.2 11.5,6.1 11.9,7 11.6,6.6 11.4,6.2 11.6,6.6 11.9,7 12.1,7.8 12.1,7.9 12.1,7.9 
			12.1,7.9 12.1,7.9 12,7.9 11.8,8 11.8,8 11.8,7.9 11.5,7.1 11.2,6.3 11.2,6.3 		"/>
	</g>
	<polygon fill="#808285" points="1.1,1.2 1.1,1.2 1.2,1.1 4.2,5 5.1,6.2 5.1,6.2 5.2,6.4 5.8,7.2 5.8,7.2 5.8,7.2 5.7,7.3 5.6,7.3 
		5.6,7.3 5.4,7.1 4.9,6.4 4.8,6.4 4.8,6.4 4.9,6.5 0.8,1.2 0.8,1.2 	"/>
	<path fill="#6A6A6A" d="M5,6.4L5,6.4l0,0.1l1.2,1.7l-0.1,0l0.3,0.4l-0.1,0L6.1,8.9l0,0L6,9l0,0.1l0.5,0.4L6.2,9.6l0,0l0,0.1l0,0.1
		L6,9.9l-0.2,0.2l0.1,0.2l0.2,0L6.5,10l0,0l0.2-0.1l0.2-0.1l0,0l0,0l0.2,0.6l0,0l0.1-0.1l0,0l0,0l0.3-0.3L7.4,9.9l0,0L8,10.6l0,0
		l0,0l0.7,0.8l0,0l0.2,0.2l0.6,0.7l0.1,0l0.1-0.1l-0.7-0.9l0,0l0,0l0,0l0,0l-0.6-0.9l0,0l0,0L8.2,9.9l0.1-0.1L8.2,9.7l0,0h0L8.1,9.8
		L7.8,9.4l0,0l0,0l0,0l0.3-0.2l0-0.1l0,0l0,0l0,0L8.3,9l0,0l0-0.1l0,0l0,0l0.4-0.3L8.6,8.3L8.2,8.5l0,0L7.9,8.6l-0.1,0l-0.2,0l0,0
		l-0.1,0l-0.1,0l0,0l-0.1,0L7.4,8.6l0-0.1L7.3,8.5l0-0.1L7.2,8.3l0-0.1l-0.1,0l0,0L7,8.4l0,0l0,0l0,0l0,0l0,0L6.7,7.9l0,0l0,0
		L5.3,6.2l0,0l0.1,0.1l0.6,0.8l0,0l0,0L5.8,7.3l0,0l-0.1,0L5.6,7.1L5,6.4L5,6.4z M7.2,9.9l0.2,0.3l-0.1,0.1L7.2,9.9z M6.6,8.8L6.7,9
		l0,0.2l-0.1,0L6.3,9l0.2-0.1L6.6,8.8z"/>
</g>
</svg>
