<?xml version="1.0" encoding="utf-8"?>
<!-- Generator: Adobe Illustrator 17.1.0, SVG Export Plug-In . SVG Version: 6.00 Build 0)  -->
<!DOCTYPE svg PUBLIC "-//W3C//DTD SVG 1.1//EN" "http://www.w3.org/Graphics/SVG/1.1/DTD/svg11.dtd">
<svg version="1.1" id="Layer_1" xmlns="http://www.w3.org/2000/svg" xmlns:xlink="http://www.w3.org/1999/xlink" x="0px" y="0px"
	 viewBox="0 0 216 216" enable-background="new 0 0 216 216" xml:space="preserve">
<g>
	<path fill="#FFFFFF" d="M104.3,164.5c-11.1,0-21.2-4.4-27.4-12c-3.5,3.7-8.3,5.8-13.4,5.8c-1.1,0-2.1-0.1-3.2-0.3
		c-5.5-1-10.2-4.4-12.9-9.2c-4.6,2.5-9.7,3.8-14.9,3.8c-16.5,0-29.9-12.6-29.9-28.2c0-14.1,11-25.9,25.7-27.9
		C28.9,87,37,79.3,46.9,79.3c1.6,0,3.2,0.2,4.8,0.6c-1.2-15.5,13.4-30.2,33.5-33.4c2.6-0.4,5.1-0.6,7.7-0.6c9.5,0,18.2,2.8,24.7,7.8
		c1.8-0.4,3.7-0.6,5.8-0.6c6.7,0,14,2.2,20.6,6.3c10.4,6.4,17.4,16.4,17.6,25.2c0.3,0,0.6,0.1,0.8,0.1c8,1.2,15.3,4.3,20.5,8.8
		c5.4,4.7,7.9,10.3,7.1,15.8c-0.1,0.9-0.4,1.8-0.7,2.7c14.2,3.9,23.3,13.6,21.9,23.5c-1.4,9.6-12.4,16.3-26.8,16.3
		c-2.2,0-4.4-0.2-6.6-0.5c-4.8-0.7-9.5-2.2-13.6-4.2c-3.4,3.3-8,5.1-12.7,5.1c-1.1,0-2.2-0.1-3.3-0.3c-4-0.7-7.6-2.7-10.3-5.7
		c-5.1,9.1-15.3,15.8-27,17.7C108.7,164.3,106.5,164.5,104.3,164.5L104.3,164.5z"/>
	<path fill="#FFFFFF" d="M187.5,113c0.6-1.2,1-2.5,1.2-3.8c1.5-10.5-10.3-20.8-26.4-23.1c-0.7-0.1-1.3-0.2-2-0.2
		c0.4-8.4-6.1-18.6-17-25.3c-9-5.5-18.7-7.2-26-5.3c-7.7-6.2-19.5-9.3-31.9-7.3c-20.2,3.2-34.5,18.2-32.1,33.6
		c0,0.2,0.1,0.3,0.1,0.4c-2-0.8-4.2-1.2-6.5-1.2c-9.6,0-17.4,7.6-17.4,16.9c0,0,0,0.1,0,0.1c-14.4,1.4-25.7,12.8-25.7,26.6
		c0,14.8,12.8,26.8,28.6,26.8c5.7,0,11-1.6,15.5-4.3c2.3,4.9,6.8,8.7,12.6,9.7c6.5,1.2,12.6-1.5,16.4-6.3
		c6.6,9.3,19.7,14.5,33.6,12.3c12.6-2,22.6-9.4,27-18.8c2.5,3.4,6.3,6,10.8,6.8c5.9,1,11.7-1.1,15.5-5.2c4,2.2,8.8,3.8,14,4.6
		c16.1,2.3,30.4-4.2,31.9-14.7C211.2,125.7,201.4,116.3,187.5,113z"/>
</g>
</svg>
