<?xml version="1.0" encoding="utf-8"?>
<!-- Generator: Adobe Illustrator 17.1.0, SVG Export Plug-In . SVG Version: 6.00 Build 0)  -->
<!DOCTYPE svg PUBLIC "-//W3C//DTD SVG 1.1//EN" "http://www.w3.org/Graphics/SVG/1.1/DTD/svg11.dtd">
<svg version="1.1" id="Layer_1" xmlns="http://www.w3.org/2000/svg" xmlns:xlink="http://www.w3.org/1999/xlink" x="0px" y="0px"
	 viewBox="0 0 116.9 80" enable-background="new 0 0 116.9 80" xml:space="preserve">
<g>
	<g>
		<polygon fill="#414042" points="82.3,14.9 78.5,18 76.6,19.6 74.7,21.2 72.8,22.8 70.9,24.5 65.2,29.6 65.1,29.7 61,33.5 
			61.1,33.6 60.9,33.9 60.8,34 60.6,34 60.1,34.3 60.1,34.5 59.9,34.3 59.8,34.2 59.8,34.2 59.7,34.2 59.5,34.1 59.4,34 59.5,33.9 
			59.5,33.9 59.6,33.7 59.9,33.3 59.9,33.2 60.1,32.9 60.2,32.8 60.4,32.8 60.5,32.8 61.6,32.1 61.7,32.1 61.8,32.2 61.8,32.2 
			61.5,32.6 61,33.3 61,33.3 65.1,29.5 65.2,29.4 70.9,24.3 72.8,22.6 74.7,21 76.6,19.4 78.5,17.8 80.4,16.3 82.3,14.7 84.2,13.2 
			84.2,13.4 		"/>
		<polygon fill="#414042" points="56.8,33.7 56.7,33.7 56.5,33.8 56.3,33.8 56.3,33.8 56.2,33.8 56.2,33.8 56.2,33.9 56.2,33.9 
			56.2,33.9 55.8,33.4 55.7,33.4 55.6,33.3 55.5,32.9 55.5,32.8 53.1,28.2 53.2,28 55.6,32.7 55.6,32.7 55.6,32.6 55.3,31.6 
			55.2,31.4 55.2,31.4 55.4,31.4 55.5,31.4 56.2,32.4 56.3,32.4 56.5,32.4 56.6,32.5 56.8,32.8 56.7,33 56.9,33.6 57,33.6 
			56.9,33.7 		"/>
		<path fill="#414042" d="M53.5,37.8L47,39.9l0.1,0.1l0.1,0l0.4-0.1l0.6-0.2l1.3-0.4l0.8-0.3l0,0l0.1,0l0.1,0l0,0l0.3-0.1l0.3-0.1
			l0,0l0,0l0.6-0.2l0.5-0.2l0,0l0,0l0.3-0.1l0.3-0.1l0.2-0.1l0.3-0.1l0.1,0l0.1,0l0,0l0.3,0.1l0.2-0.1l0.1-0.1l0-0.1l0,0l0.7-0.3
			l0.1,0l0.1,0l0.1-0.1l0.1,0l0,0l0.1,0l0.3-0.1l0.1,0l0.2-0.1l0,0l0.2,0.1l0.8-0.3l-0.2-0.1l-0.4-0.2l-0.1,0l-0.2-0.2l-0.1-0.1l0,0
			l0,0l0,0l0,0l0,0l0,0l0,0l0,0l0-0.1l0,0l0,0l0,0l0,0l-0.4,0.2l-0.1,0.3l-0.1,0.3l-0.1,0l-0.4,0.1l0,0l-0.5,0.1l-0.2-0.1l0,0l0,0
			l-0.1,0l-0.1,0.2l0,0l0,0.1l0,0l0,0l0,0l-0.3,0.1L51.5,38l0,0l0,0l0.1,0l0.1,0.1l0,0l0.3-0.1L53.5,37.8L53.5,37.8z M55.1,36.6
			l0.1-0.1L55.1,36.6L55.1,36.6L55.1,36.6z"/>
		<polygon fill="#414042" points="56.3,40.8 56.4,40.7 56.5,40.4 56.5,40.4 56.6,40.3 56.6,40.4 56.6,40.6 56.5,40.9 56.5,41.1 
			56.4,41.4 56.3,41.3 56.3,41.3 56.3,41.1 56.3,41 		"/>
		<path fill="#414042" d="M58.5,38.1L58.5,38.1l0.1,0.1l0,0l0,0l0-0.5l0.1,0l0.5,0.2l0.3,0l0.4,0l0,0l0.3,0l0,0.1l0.6,0.5l0.1,0.2
			l0.1,0.1l0.3,0l0,0l0,0l1.8,1.3l3.4,2.3l0,0l0.9,0.6l0.2,0.1l0.7,0.5l0.8,0.6l0.3,0.2l0,0l0,0l0.1,0l0,0l0,0l0.1,0.1l0,0l0.1,0
			l0,0l0,0l0.1,0.1l0,0l0,0l0.1,0l0,0l0,0l0.1,0.1l0,0l0.2,0.2l0,0l0,0l0.1,0.1l0,0l0.5,0.4l0.2,0.1l0.3,0.2l0,0l0.7,0.5l0.1,0.1
			l0.3,0.2l0.1,0.1l0.3,0.2l0.1,0.1l0.1,0.1l0.3,0.2l0.1,0.1l0.2,0.1l0.2,0.2l0.1,0l0,0l0.1,0.1l0.3,0.2l0.1,0.1l0.1,0l1.9,1.4
			l2.5,1.8l2.5,1.9l2.5,1.9l4.9,3.9l2.5,2l0-0.2l-2.5-2l-2.5-2l-2.5-2l-2.5-1.9l-2.5-1.9l-2.5-1.8l-2.5-1.8l-7.5-5.4l0,0l-5.3-3.7
			l0,0l1,0.5l0.5,0.3l0,0l0.1-0.1l0.1,0l0,0l0,0l-1.1-1l-0.1-0.1l0-0.1l0,0l0-0.1l-0.1-0.2l-0.1-0.1l-0.2,0l0,0l-0.8-0.4l-0.1,0
			l-0.3-0.2l0,0l0,0l-0.1-0.1l0-0.4l0.1,0l0.1,0l0,0l0.1,0l0.3-0.1l0.1,0l0.4-0.3l0.1,0l0.2-0.1l0,0.1l0.2,0l0.4,0l0.3,0l0.3,0
			l0,0.1l0,0l0,0l0,0l0.1,0l0-0.1l0-0.1l0-0.1l0,0l0.4-0.1l7.3-0.1l0.1,0l10.6,0.1l3.5,0.1l3.5,0.1l3.5,0.1l3.5,0.1l7,0.4l3.5,0.3
			l0-0.2l-3.5-0.3l-3.5-0.2l-3.5-0.2L92,36.2l-3.5-0.1L85,36L81.5,36l-10.6-0.1l-0.1,0L63.3,36l0,0l1.2-0.1l0.7-0.1l0,0l0-0.1l0-0.1
			l-1.5-0.2L63,35.4l0-0.1l-0.1-0.1l-0.2,0l0,0.1l-1,0.1l0,0l0,0l-0.1,0l0,0.1l-0.2,0l-0.1,0l-0.4,0l-0.3,0l0,0.1l0,0.2l0,0.1l0,0.2
			l-0.1,0.1l-0.1,0.2l0,0l0,0l0,0l-0.1,0.1l0,0.1l0,0l0,0l0,0l0,0l0,0l0,0l0,0l0,0l0,0l0,0l0,0.1l-0.2-0.1l-0.2,0.1L59.4,37l-0.1,0
			l-0.5,0.1l-0.2,0l0.4,0.3l-0.3,0l-0.1,0l0,0l-0.1,0l0,0l0,0.1l0,0.2l0,0L58.5,38.1z M60.6,36.3L60.6,36.3L60.6,36.3L60.6,36.3
			l0.1-0.1l0,0l0,0L60.6,36.3z M60.3,37.9L60.3,37.9L60.3,37.9L60.3,37.9z"/>
		<polygon fill="#414042" points="56.6,39 56.7,39 56.9,38.7 56.9,38.7 56.9,38.7 56.9,38.6 57,38.5 57,38.3 56.9,38.2 56.6,37.9 
			56.5,37.7 56.5,37.9 56.5,37.9 56.5,37.9 56.4,37.9 56.4,37.9 56.3,37.9 56.4,37.2 56.4,37.1 56.5,37.1 56.5,37.1 56.6,37.1 
			56.6,37.2 56.6,37.2 56.9,37.6 57,37.6 57.1,37.2 57.2,37.2 57.6,37.2 57.6,37.2 57.9,37.2 58.1,37.2 58,37.8 57.9,38 57.8,38 
			57.8,38.3 57.8,38.3 57.8,38.4 57.8,38.6 57.8,38.9 58,39.2 57.9,39.2 57.9,39.3 57.7,39.6 57.7,39.6 57.7,39.6 57.4,40.8 
			57.3,41.2 57.3,41.2 57.3,41.3 57.3,41.3 57.3,41.4 57.3,41.6 57.3,41.6 57.3,41.6 57.2,41.9 57.2,41.9 57.2,41.9 57.2,42 
			57.1,42.6 57,43.1 56.9,43.2 56.9,43.2 56.9,43.3 56.9,43.6 56.8,43.7 56.8,44 56.8,44 57.7,39.3 57.7,39.3 57.7,39.3 57.6,39.3 
			57.2,40.3 57.2,40.5 57.2,40.5 57,40.4 56.9,40.4 56.9,40.4 56.9,40 56.9,39.2 56.8,39.2 56.8,39.2 56.8,39.5 56.7,39.2 
			56.6,39.1 56.6,39.1 		"/>
		<polygon fill="#414042" points="55.1,35.8 55.1,35.8 55.1,35.7 		"/>
		<polygon fill="#414042" points="52.5,34.8 52.6,34.8 51.1,34.2 50.8,34.1 50.8,34.1 50.9,34 50.9,34 52.3,34.2 52.9,34.3 53,34.2 
			53.1,34.1 53.3,34.1 53.3,34.2 53.3,34.3 54.3,34.7 54.3,34.8 54.4,34.8 55.2,34.6 55.1,34.8 55.1,34.8 55.1,35 55.1,35 55,35.2 
			55,35.4 55,35.5 55,35.5 55,35.6 54.2,35.3 54.1,35.4 53,35.3 52.9,35.4 52.7,35.3 52.7,35.1 52.7,35.1 52.3,34.9 52.1,34.8 
			49.4,34.1 49.4,34.1 48.8,33.9 48.1,33.7 47.8,33.7 47.5,33.6 47.4,33.5 47.1,33.4 46.9,33.4 46.8,33.4 46.8,33.4 46.3,33.2 
			46.3,33.2 45.4,33 45.4,32.8 		"/>
	</g>
	<g>
		<polygon fill="#939598" points="88.5,36.1 85,36 81.5,36 70.9,35.9 70.8,35.9 63.3,36 63.2,36 64.5,35.9 65.1,35.8 65.1,35.8 
			65.1,35.7 65.1,35.6 63.6,35.5 70.7,35.4 70.6,34.5 70.6,34.3 81.2,34.4 84.8,34.5 88.3,34.5 91.8,34.7 95.3,34.8 98.8,35 
			102.3,35.2 105.8,35.4 106.1,37 102.6,36.7 99.1,36.6 95.6,36.4 92,36.2 		"/>
		<polygon fill="#939598" points="19.2,50.1 22.2,48.8 25.2,47.5 28.3,46.3 31.3,45.1 34.3,44 37.4,42.8 39.1,42.2 39.3,42.1 
			39.4,42.1 40.2,41.8 40.3,41.7 40.4,41.7 42.3,41 42.8,40.8 45,40 46.5,39.5 46.5,39.5 46.7,39.4 47.4,39.2 48.6,38.8 49.4,38.5 
			49.4,38.5 49.4,38.5 49.5,38.5 49.6,38.4 49.8,38.4 50.2,38.2 50.2,38.2 50.3,38.2 50.7,38.1 51,38 51.1,37.9 51.4,37.8 
			51.7,37.7 51.9,37.7 52.3,37.5 52.7,37.4 52.8,37.4 52.8,37.4 51.5,38 51.5,38 51.5,38 51.6,38 51.7,38.1 51.7,38.2 51.9,38.1 
			53.4,37.7 53.5,37.8 47,39.9 47.1,40.1 47.2,40.2 47.5,40.6 47.8,40.9 47.8,40.9 47.8,41 47.7,41 46.6,41.5 46.2,41.6 46.1,41.6 
			46,41.7 44.9,42.1 44.1,42.4 42.5,43 42.3,43 41.5,43.3 41.2,43.4 41.2,43.4 38.7,44.4 35.6,45.5 32.6,46.7 29.6,47.9 26.5,49.1 
			20.5,51.7 17.4,53 16.1,51.6 16.1,51.4 		"/>
		<polygon fill="#939598" points="62.4,39.2 62.9,39.5 62.9,39.5 63,39.4 63.1,39.4 63.1,39.4 63.1,39.4 62,38.3 62,38.3 63.6,39.4 
			64.3,39.9 64.3,39.9 64.6,40.1 65.1,40.4 65.2,40.5 65.6,40.8 65.8,40.9 66.4,41.3 66.4,41.4 66.8,41.7 66.9,41.7 66.9,41.7 
			67,41.8 67.2,41.9 67.3,42 67.3,42 67.5,41.9 67.6,41.8 68.1,41.6 68.2,41.5 68.5,41.4 68.5,41.4 68.9,41.7 69,41.7 69.1,41.8 
			69.1,41.8 71.2,43.3 72.2,44.1 72.3,44.1 72.3,44.1 72.4,44.2 72.5,44.3 72.5,44.3 72.6,44.4 72.7,44.4 72.7,44.4 72.7,44.4 
			72.7,44.4 72.7,44.4 76,46.8 78.5,48.6 80.9,50.4 83.4,52.3 85.9,54.2 88.4,56.2 90.8,58.2 93.3,60.2 93.3,60.4 91.5,61.4 
			91.5,61.2 89.1,59.2 86.6,57.2 84.1,55.3 81.7,53.4 79.2,51.5 76.7,49.6 74.2,47.8 66.8,42.4 66.7,42.3 61.4,38.7 61.4,38.6 		"/>
		<polygon fill="#939598" points="63.1,28.7 63.1,28.5 68.8,23.4 70.7,21.7 72.6,20 74.5,18.4 76.4,16.8 78.3,15.3 80.2,13.8 
			82.1,12.3 84.2,13.2 82.3,14.7 80.4,16.3 78.5,17.8 76.6,19.4 74.7,21 72.8,22.6 70.9,24.3 65.2,29.4 65.1,29.5 61,33.3 61,33.3 
			61.5,32.6 61.8,32.2 61.8,32.2 61.7,32.1 61.6,32.1 60.5,32.8 60.4,32.8 64.3,29.3 		"/>
		<polygon fill="#939598" points="11.2,26.2 12,24.8 15.4,25.4 18.8,26.1 22.1,26.8 25.5,27.5 26.1,27.6 26.5,27.7 26.7,27.8 
			26.8,27.8 26.8,27.8 27.1,27.8 27.5,27.9 28.8,28.2 29.3,28.3 29.8,28.4 32.2,29 32.2,29 32.4,29 35.4,29.8 35.5,29.8 37.1,30.2 
			38.8,30.6 43.8,31.8 43.8,31.9 45.6,32.3 45.7,32.3 46.7,32.6 46.8,32.6 47.3,32.8 48,33 50.3,33.6 52.3,34.2 50.9,34 50.9,34 
			50.8,34.1 50.8,34.1 51.1,34.2 52.6,34.8 52.5,34.8 45.4,32.8 45.4,33 45.1,33.4 45.1,33.4 45,33.5 45,33.6 44.8,33.9 44.7,33.9 
			44.7,33.9 44.6,33.8 44.1,33.7 44,33.7 43,33.5 42.7,33.4 42.4,33.3 38.5,32.3 36.9,31.9 36.2,31.7 35.4,31.6 34.7,31.4 34,31.2 
			32.8,30.9 31.4,30.6 31.3,30.6 29.3,30.1 29.1,30.1 28.3,29.9 28.3,29.9 28.1,29.8 28,29.8 28,29.8 27.5,29.7 27.2,29.6 
			24.6,29.1 21.3,28.3 14.6,27 11.2,26.4 		"/>
		<polygon fill="#939598" points="55.5,31.4 55.4,31.4 55.2,31.4 55.2,31.4 55.3,31.6 55.6,32.6 55.6,32.7 55.6,32.7 53.2,28 
			53.1,28.2 51.6,28.4 48.1,22.1 47,20.1 45.8,18 44.6,16 43.5,14.1 41.2,10.2 40,8.4 40,8.2 42.3,7.8 43.5,9.7 44.7,11.6 
			45.8,13.5 47,15.5 48.2,17.5 49.3,19.5 50.5,21.6 53.9,27.8 53.9,27.9 56.3,32.4 56.2,32.4 		"/>
		<polygon fill="#939598" points="51.9,65.1 52.4,62.7 52.8,60.2 53.3,57.8 53.6,56.2 53.6,56.1 53.6,56.1 53.6,56.1 53.6,55.9 
			53.7,55.8 53.7,55.6 53.7,55.5 53.7,55.5 53.8,55.3 53.8,55.2 53.8,55.2 53.8,55 53.8,54.8 53.9,54.7 53.9,54.4 53.9,54.4 
			53.9,54.4 53.9,54.4 53.9,54.3 53.9,54.2 54.2,53.1 54.3,52.6 54.3,52.4 54.3,52.2 54.4,51.7 54.4,51.7 54.5,51.5 54.5,51.1 
			54.6,50.8 54.6,50.6 54.8,49.8 54.9,49.2 55.1,48.1 55.1,48.1 55.4,46.3 55.4,46.3 55.5,46.2 55.5,46.2 55.5,46.2 55.5,45.8 
			55.6,45.7 55.7,45.2 55.7,45.1 55.8,44.4 55.8,44.4 55.9,44.1 55.9,44 55.9,43.9 56,43.7 56,43.6 56.1,43.1 56.1,42.9 56.1,42.7 
			56.2,42.6 56.2,42.6 56.3,42.1 56.3,41.7 56.3,41.7 56.3,41.7 56.4,41.7 56.4,41.6 56.4,41.6 56.4,41.5 56.4,41.5 56.4,41.4 
			56.4,41.4 56.4,41.4 56.5,41.1 56.5,40.9 56.6,40.6 56.6,40.4 56.6,40.3 56.6,40.3 56.6,40.2 56.7,40.1 56.7,40.1 56.7,39.9 
			56.7,39.9 56.8,39.5 56.8,39.2 56.8,39.2 56.9,39.2 56.9,40 56.9,40.4 56.9,40.4 57,40.4 57.2,40.5 57.2,40.5 57.2,40.3 
			57.6,39.3 57.7,39.3 57.7,39.3 57.7,39.3 56.8,44 56.8,44 57.1,44.1 57.7,44.2 57.9,44.2 58,44.2 58.3,44.3 58.3,44.4 58.3,44.4 
			58.2,44.9 58.2,45 58.2,45.3 58.1,45.6 58.1,45.7 58,46.2 58,46.4 57.9,46.8 57.9,46.9 57.8,47.2 57.8,47.2 57.8,47.3 57.8,47.4 
			57.8,47.4 57.4,49.4 57.3,49.9 57.1,50.8 57,51.3 56.9,51.9 56.8,52.4 56.7,53 56.7,53 56.7,53 56.6,53.7 56.6,53.8 56.5,54.1 
			56.5,54.3 56.4,54.4 56.4,54.5 56.2,55.9 55.3,60.7 54.4,65.6 53.9,68.1 51.5,67.8 51.5,67.6 		"/>
	</g>
	<polygon fill="#E6E7E8" points="55,35.5 55,35.4 55,35.2 55.1,35 55.1,35 55.1,34.8 55.1,34.8 55.2,34.6 55.5,34.2 56.2,33.9 
		56.2,33.9 56.2,33.9 56.2,33.9 56.2,33.8 56.2,33.8 56.3,33.8 56.3,33.8 56.5,33.8 56.7,33.7 56.8,33.7 56.9,33.7 57,33.6 
		57.1,33.6 58.1,33.6 59,33.8 59.4,34 59.5,34.1 59.7,34.2 59.8,34.2 59.8,34.2 59.9,34.3 60.1,34.5 60.4,34.8 60.6,35.4 60.6,35.5 
		60.6,35.6 60.6,35.7 60.6,35.8 60.6,35.9 60.5,36.1 60.4,36.2 60.3,36.4 60.3,36.5 60.2,36.5 60.1,36.6 60.1,36.6 60.1,36.6 
		60.1,36.6 60.1,36.6 60.1,36.6 60.1,36.6 60,36.7 60,36.7 59.9,36.8 59.7,36.9 59.4,37 59.4,37 58.9,37.2 58.7,37.2 58.5,37.2 
		58.1,37.2 57.9,37.2 57.6,37.2 57.6,37.2 57.2,37.2 57.1,37.2 56.6,37 56.5,37 56.3,36.9 55.9,36.7 55.8,36.6 55.6,36.4 55.4,36.3 
		55.4,36.3 55.4,36.2 55.4,36.2 55.3,36.2 55.3,36.1 55.3,36.1 55.2,36.1 55.2,36 55.2,36 55.2,36 55.2,36 55.1,35.8 55.1,35.7 
		55,35.6 55,35.5 	"/>
</g>
</svg>
