<?xml version="1.0" encoding="utf-8"?>
<!-- Generator: Adobe Illustrator 17.1.0, SVG Export Plug-In . SVG Version: 6.00 Build 0)  -->
<!DOCTYPE svg PUBLIC "-//W3C//DTD SVG 1.1//EN" "http://www.w3.org/Graphics/SVG/1.1/DTD/svg11.dtd">
<svg version="1.1" id="Layer_1" xmlns="http://www.w3.org/2000/svg" xmlns:xlink="http://www.w3.org/1999/xlink" x="0px" y="0px"
	 viewBox="0 0 75.1 59.9" enable-background="new 0 0 75.1 59.9" xml:space="preserve">
<g>
	<g>
		<g>
			<polygon fill="#808285" points="7.9,10.1 9,6.7 9.9,6.1 9.9,6.1 10,6 8.4,10.9 8.3,10.8 8.3,10.8 			"/>
			<polygon fill="#C6CDC7" points="64.4,57.9 64.5,57.8 64.6,57.7 65.1,57.4 65.9,57.7 65.2,58.1 64.6,58.5 64.3,58.4 64.3,58.4 
				64.3,58.4 64.3,58.4 64.2,58.4 63.9,58.3 63.9,58.3 63.7,58.2 			"/>
			<g>
				<polygon fill="#BABABA" points="26.7,46.4 26.8,46.3 26.8,46.3 26.9,46.3 26.9,46.3 26.9,46.3 27.5,46.8 27.5,46.8 27.4,46.8 
					27.3,46.9 27.2,46.9 26.6,47.3 25.9,46.9 25.9,46.8 				"/>
				<polygon fill="#BFDB7E" points="28.9,45.2 29.3,45.3 28.8,45.2 28.9,45.2 				"/>
			</g>
			<polygon fill="#A1A7A5" points="46.4,41.1 47.2,41.2 46.4,41.1 47.3,41 47.5,41 47.6,41 47.8,41 48.4,41.4 48.6,41.5 48.9,41.9 
				49,42 49.6,43.2 49.8,43.8 49.9,44.1 50.1,44.6 50.1,44.6 49.8,44.4 49.8,44.4 49.6,44.2 49,43.9 49,43.9 48.6,43.7 48.1,43.4 
				48,43.3 47.6,42.5 47.2,41.6 47.2,41.6 47.1,41.6 46.3,41.4 			"/>
			<polygon fill="#94D9F7" points="52.2,45.5 51.9,45.2 51.7,45.1 			"/>
			<polygon fill="#94D9F7" points="51.7,45.1 51.5,45.2 51.8,45.5 52.4,45.6 52.2,45.5 			"/>
			<polygon fill="#94D9F7" points="52.4,45.6 51.8,45.5 51.9,45.6 52,45.6 52.1,45.6 52.2,45.6 52.3,45.6 			"/>
			<g>
				<path fill="#808285" d="M63.2,42.4L63,42.2l-2.5-2.5l-0.6,0l2.7,2.5l-0.4,0.2l-3-2.5l0.7-0.2l-1,0l-0.5-0.5l-1-0.5L56.1,38
					l-1.2-0.8l-1.1-0.7c-1.1-0.7-2.8-1.1-4.7,0.5c-1.5,1.3-0.1,1.4,0.5,1.4c0.1,0,0.2,0,0.2,0s0.6,0.5,0.9,0.8l0,0
					c0.1,0.1,0.2,0.2,0.2,0.2c0,0,0,0,0,0c0.1-0.1,0.4-0.5,0.5-0.6l-0.1,0.1l0.9,0.5l0.4,0.1l1,0.7l0,0l0.2,0.2l0.5,0.3l0.3,0.2
					l1.7,1.2l0.2,0.2l0.6-0.5l0.1-0.2l0.1-0.4l0,0l0.2-0.5L58,40l1,1.2l0,0.6l2.1,1.5l1.1,0.8l0.1,0l0.8-0.5l0.2-0.5l0.1-0.4
					L63.2,42.4z M62.9,43.2l-0.2,0.4l-0.4,0.3l0-0.3v-1.1l0.2-0.1l0.1,0l0.2,0l0.2,0.1l0,0.3L62.9,43.2z"/>
			</g>
			<polygon fill="#94D9F7" points="52.5,46.1 52.5,45.8 52.3,45.6 52.2,45.6 52.5,46.1 			"/>
			<polygon fill="#94D9F7" points="52.3,45.6 52.5,45.8 52.4,45.6 			"/>
			<polygon fill="#94D9F7" points="51.9,45.6 52.1,45.7 52,45.6 			"/>
			<polygon fill="#94D9F7" points="52,45.6 52.1,45.7 52.5,46.2 52.5,46.1 52.1,45.6 			"/>
			<polygon fill="#94D9F7" points="52.1,45.6 52.5,46.1 52.2,45.6 			"/>
			<g>
				<polygon fill="#BABABA" points="16.1,26.5 16.1,26.5 16.1,26.5 16.1,26.5 16.1,26.5 16.1,26.5 16.1,26.5 16.1,26.5 16.1,26.5 
					16.1,26.5 16.1,26.5 16.1,26.5 16.7,27.4 16.5,27.3 16.1,27.2 15.4,25.9 				"/>
				<polygon fill="#BABABA" points="18,29.4 18,29.4 18.1,29.4 19.2,31 19.2,31 21.3,34.4 21.3,34.4 19.9,34.2 17.2,29.2 17.5,29.3 
									"/>
			</g>
			<g>
				<polygon fill="#BDBEC1" points="52.8,49.4 52.8,49.4 52.7,51.4 52.6,51.7 52.7,51.8 52.8,52 54,52.7 54.1,52.7 54.2,52.7 
					54.3,52.6 54.5,50.1 54.5,50 54.4,49.8 53.9,49.6 54,49.5 54.4,49.8 54.6,49.9 54.6,50.2 54.4,52.7 54.3,52.9 54.2,52.9 
					54.1,52.9 52.7,52.1 52.6,51.9 52.5,51.6 52.6,51.3 				"/>
				<path fill="#BDBEC1" d="M30.3,38.6l0,0.2l0.1,0.1l1.3,0.8l0.1,0l0.1-0.1l0.2-2.5l0-0.1l0-0.1l-0.1-0.1l-0.3-0.2L30.7,36l-0.1,0
					l-0.1,0.1L30.3,38.6z M30.5,38.3l0.2-2l0,0l0,0L32,37l0,0l0,0.1l-0.2,2l0,0l0,0L30.5,38.3L30.5,38.3L30.5,38.3z"/>
				<polygon fill="#BDBEC1" points="43.1,44.3 43.2,44.4 43.2,44.4 43.2,44.8 43.1,45.7 43.1,45.7 43.2,45.8 44.1,46.3 44.4,46.5 
					44.5,46.5 44.5,46.5 44.6,45.4 44.7,45.5 44.6,47 44.5,47.1 44.5,47.1 44.4,47.1 43.1,46.3 43,46.2 42.9,46 43.1,44.6 				"/>
				<polygon fill="#BDBEC1" points="53.5,49.3 53.6,49.3 53.8,49.4 53.7,49.5 				"/>
			</g>
			<polygon fill="#808285" points="25.7,39.3 23.9,37.5 23.7,37.2 21.3,38.6 27.4,40.9 27.4,40.8 			"/>
			<polygon fill="#D683B7" points="27.4,40.8 27.4,40.9 27.5,40.8 			"/>
			<polygon fill="#A1A7A5" points="27.4,40.9 25.6,40.5 23.8,39.9 21.3,38.6 			"/>
			<polygon fill="#A1A7A5" points="32.9,47.2 33.4,47.5 37.5,49.8 37.8,50 38.9,50.6 39.4,50.8 39.4,50.8 39.5,50.9 39.7,51 
				39.8,51 39.8,51.1 39.9,51.1 39.9,51.4 39.9,51.5 39.9,51.5 39.8,51.5 39.6,51.5 39,51.2 38.8,51.1 33.5,48.1 31.7,46.9 
				31.5,46.8 31.5,46.7 31.5,46.5 31.5,46.4 			"/>
			<polygon fill="#010101" points="48,46.8 48,46.8 48,46.8 48,46.9 48,46.9 48,46.9 48.1,47 48.1,47.1 48.1,47.1 48.1,47.2 
				48.1,47.3 48.1,47.3 48.1,47.4 48.1,47.5 48.1,47.5 48.1,47.5 48.1,47.6 48.1,47.5 48,47.3 48,47.1 48,47.1 48,47.1 48,47.1 
				48,46.9 48,46.9 48,46.8 48,46.8 			"/>
			<g>
				<polygon fill="#191717" points="52.7,48.6 52.7,48.4 52.8,48.3 52.9,48 52.9,48 53.2,47.8 53.2,47.7 53.5,47.5 53.5,48.2 
					53.5,49 53.1,49.1 52.9,49.1 52.7,49 52.7,48.9 52.7,48.8 				"/>
				<polygon fill="#191717" points="46.3,40.8 46.3,40.5 46.4,40.4 46.5,40.1 46.5,40.1 46.7,39.9 46.8,39.8 47.1,39.6 47.1,40.3 
					47,41.1 46.7,41.2 46.5,41.2 46.3,41.1 46.3,41 46.3,40.9 				"/>
			</g>
			<polygon fill="#191717" points="33,33.3 33,33.3 33,33.1 34,33.3 34,33.5 34,33.8 34,33.8 34,34 34,34.3 34,34.3 33.9,34.5 
				33.9,34.7 33.9,34.7 33.8,34.9 33.7,35 33.6,35 33.5,35.1 33.5,35.1 33.3,35 33.1,34.7 33,34.3 32.9,33.8 			"/>
			<g>
				<polygon fill="#E8E8E8" points="7.1,16.3 7.2,16.3 7.2,16.2 7.5,16.6 7.4,16.7 7.4,16.7 7,17 6.5,17.3 6.4,17.3 6.3,17.4 
					6.3,17.4 6,17 6.1,17 				"/>
				<polygon fill="#E8E8E8" points="6.9,18.3 6.9,18.3 6.9,18.2 7.1,18.5 7.1,18.5 7.2,18.5 7.3,18.6 7.3,18.6 7.3,18.6 7.3,18.6 
					7.3,18.6 7.3,18.6 7.3,18.7 7.3,18.7 7.3,18.7 7.4,18.7 7.4,18.7 7.4,18.8 7.4,18.8 7.4,18.8 7.4,18.8 7.4,18.9 7.4,18.9 
					7.4,19 7.4,19 7.1,18.6 7.1,18.6 7.1,18.6 7,18.5 6.8,18.3 6.9,18.3 				"/>
				<polygon fill="#E8E8E8" points="4.5,5 4.7,5.8 5,6.6 5,6.7 5,6.7 5.2,6.6 5,6.7 4.8,6.8 4.8,6.8 4.3,5.2 4.2,5.1 4.4,5 				"/>
			</g>
			<g>
				<polygon fill="#E7E7E7" points="36.3,32.8 36.3,32.8 36.8,33 36.8,33.1 36.8,33.1 36.8,33.2 35.1,33 35.4,32.6 				"/>
				<polygon fill="#E7E7E7" points="13.8,20.4 13.8,20.4 13.9,20.4 13.9,20.4 13.9,20.3 14,20.2 14,20.2 14.1,20.3 14.3,20.4 
					14.4,20.4 19.5,22.8 22.5,24.2 23.6,24.7 23.8,24.8 26.4,26 27,26.3 29,27.3 30.1,27.8 31.1,28.3 32.7,29 33.3,29.3 35.7,30.4 
					36.4,30.7 36.7,30.9 38,31.5 38,31.5 37.3,31.9 37,32 36.8,32.2 36.7,32.2 36.8,32.3 36.8,32.8 36.8,32.7 36.8,33.9 35.4,33.5 
					34.7,33.7 26.4,28.7 24.2,27.3 21.8,25.8 18.3,23.5 16.3,22.3 13.9,20.7 13.9,20.7 13.9,20.6 13.9,20.6 13.8,20.5 				"/>
			</g>
			<polygon fill="#484949" points="59.9,39.6 62.7,42.2 62.2,42.4 59.3,39.9 			"/>
			<g>
				<polygon fill="#BABABA" points="53.7,49 53.7,49 53.7,48.8 53.7,48.8 53.7,48.8 54.8,48.1 54.9,48.1 54.9,48.1 54.9,48.3 
					54.8,48.3 53.8,48.9 				"/>
				<polygon fill="#BABABA" points="53.3,49.4 53.4,49.4 53.4,49.4 53.4,49.4 53.4,49.3 53.4,49.3 53.5,49.4 53.7,49.5 53.7,49.5 
					53.8,49.4 54.1,49.3 54.1,49.3 54.2,49.3 54.2,49.3 54.2,49.3 54.2,49.3 54.2,49.4 54.2,49.4 54.2,49.4 54,49.5 53.9,49.6 
					53.7,49.6 53.4,49.6 53.3,49.4 				"/>
			</g>
			<path fill="#808285" d="M62.3,58.9l0,0.3l0.1,0.3l0.2,0.3l0.2,0.2l0.2,0.1l0.1,0l0.2,0l0.1-0.1l0.1-0.1l0-0.1l0-0.1l0-0.1l0,0
				l0-0.2l0,0l0,0l-0.1-0.3l0,0l0,0l0,0l0,0l0,0l0,0l-0.1-0.1l0,0l0,0l0,0l-0.1,0l0,0l0,0l-0.1,0.1l0,0l-0.1,0l0,0l-0.1,0L62.3,58.9
				L62.3,58.9L62.3,58.9z M62.6,59l0-0.1l0.1-0.1l0.1,0l0,0l0.1,0L63,59l0.1,0.1l0.1,0.1l0,0.1l0,0.1l0,0l0,0l0,0l-0.1,0l-0.1,0
				l-0.1-0.1l-0.1-0.1l-0.1-0.1L62.6,59z"/>
			<polygon fill="#A7A9AC" points="7.3,3 13.6,0.1 13.7,0.1 14.1,0.3 14.9,0.8 16.3,1.7 16.3,1.7 10.8,5.3 10,6 9.9,6.1 9,6.7 
				7.5,8 7.5,8 7.5,7.9 7.5,7.8 7.4,7.6 7.2,6.7 7.1,6.6 6.8,6.2 6.4,5.7 6.4,5.7 6.2,5.6 5.5,5.2 5.2,5 5.1,5 4.9,4.9 4.6,4.7 
				4.6,4.7 4.6,4.7 4.5,4.6 			"/>
			<g>
				<polygon fill="#E6E7E8" points="1.1,7.9 1.2,7.9 1.2,7.8 1.2,7.8 1.2,7.8 1.4,7.7 1.4,7.7 1.4,7.7 1.4,7.8 1.5,8 1.5,8 1.6,8 
					1.7,8 1.8,8 1.9,8 2.1,8 1.6,8.2 1.3,8.2 1,8.2 0.9,8.1 0.9,8.1 0.9,8.1 				"/>
				<polygon fill="#E6E7E8" points="1,5.8 1.1,5.7 1.1,5.7 1.6,5.2 1.7,5.2 1.7,5.1 2,5.2 2,5.2 2.5,5.5 2.6,5.5 3,5.8 2.7,5.9 
					2.4,6.1 1.4,6.6 1,6.8 1.1,6.9 1.1,7 1.2,7.2 1,7.3 0.9,7.4 0.8,7.4 0.8,7.4 0.7,7.4 0.6,7.5 0.6,7.5 0.5,7.5 0.4,7.3 0.4,7.3 
					0.3,7.2 0.3,7.1 0.2,7 0.2,7 0.1,7 0.1,7 0.1,7.1 0.1,7.1 0,7.1 0,7 0,7 0,7 				"/>
			</g>
			<polygon fill="#545454" points="66.2,56.7 66.5,56.4 66.6,55.9 67,55.4 67,55.8 66.9,56.1 66.8,56.1 66,56.8 			"/>
			<g>
				<polygon fill="#484949" points="57.4,41 57.7,40.5 58,40 59.2,41.3 59.1,41.4 58.9,41.3 58.5,41 58.5,41 58.2,41.1 58.1,41.2 
					57.6,41.4 57.5,41.5 57.3,41.6 57.3,41.6 57.4,41.4 				"/>
			</g>
			<g>
				<polygon points="63.8,59.1 63.8,59 63.8,58.9 63.8,58.8 63.8,58.8 64,58.7 64.1,58.7 64.2,58.7 64.2,58.7 64.3,58.7 64.4,58.6 
					64.4,58.6 64.4,58.7 64.4,59 64.4,59.2 64.3,59.3 64.2,59.4 64.1,59.5 63.9,59.5 63.8,59.5 63.7,59.5 63.7,59.4 63.8,59.4 
					63.7,59.1 				"/>
				<polygon points="63.6,58.4 63.6,58.3 63.6,58.3 63.6,58.3 63.7,58.2 63.7,58.2 63.7,58.2 63.9,58.3 63.9,58.3 64.2,58.4 
					64.3,58.4 64.3,58.4 64.3,58.4 64.2,58.5 64.2,58.5 64.1,58.6 64,58.6 64,58.6 63.8,58.7 63.8,58.7 63.7,58.6 63.6,58.5 
					63.6,58.5 				"/>
			</g>
			<g>
				<polygon fill="#818285" points="33.6,35 33.7,35 33.8,34.9 33.9,34.7 33.9,34.7 33.9,34.5 34,34.3 34,34.3 34,34 34,33.8 
					34,33.8 34,33.5 34,33.3 34.1,33.3 34.6,33.5 34.7,33.5 34.7,33.5 34.7,33.5 34.7,34 34.7,34.6 34.8,35.1 34.8,35.5 34.9,35.8 
					33.5,35.1 33.5,35.1 				"/>
				<polygon fill="#818285" points="33.3,35 33.5,35.1 35,35.8 				"/>
			</g>
			<g>
				<polygon fill="#A4A4A4" points="14,0 14.1,0 14.4,0.2 15.1,0.6 16.3,1.4 16.3,1.4 16.3,1.7 16.3,1.7 14.9,0.8 14.1,0.3 
					13.7,0.1 13.6,0.1 				"/>
				<polygon fill="#A4A4A4" points="59.5,44.2 59.5,44.2 59.6,44.3 59.6,44.3 59.6,44.3 59.8,44.4 59.8,44.4 59.9,44.4 59.9,44.4 
					59.9,44.5 60,44.5 60,44.5 60,44.5 60.1,44.6 60.1,44.6 60.1,44.6 60.2,44.7 60.2,44.7 60.2,44.7 60.1,44.6 60.1,44.6 
					60.1,44.6 60,44.6 60,44.6 60,44.6 59.8,44.5 59.8,44.5 59.8,44.5 59.8,44.4 59.7,44.4 59.7,44.4 59.6,44.3 59.6,44.3 
					59.6,44.3 59.5,44.2 59.5,44.2 59.5,44.2 59.3,44 59.5,44.2 				"/>
				<polygon fill="#A4A4A4" points="75,59.8 75.1,59.8 75.1,59.8 75.1,59.8 75.1,59.8 75.1,59.8 75.1,59.8 75.1,59.8 75,59.8 
					75,59.8 				"/>
				<polygon fill="#A4A4A4" points="42,38.6 42.2,38.5 42.2,38.5 42.2,38.5 42.3,38.4 42.4,38.3 42.4,38.4 42.4,38.4 42.5,38.7 
					42.5,38.7 42.5,39 42.5,39 42.4,39.3 42.4,39.3 42.4,39.3 42.4,39.3 42.5,39.4 42.5,39.5 42.5,39.5 42.5,39.5 42.5,39.5 
					42.4,39.5 42.2,39.4 42.1,39.4 42.1,39.3 42.1,39.2 42.1,39 42.1,38.8 41.6,38.9 41.6,38.8 41.6,38.8 41.6,38.7 42,38.7 				"/>
				<polygon fill="#A4A4A4" points="47.2,41.5 47.2,41.5 47.2,41.5 47.2,41.6 47.2,41.6 47.2,41.6 47.2,41.6 				"/>
				<polygon fill="#A4A4A4" points="65.2,58.1 64.4,58.6 64.4,58.6 64.3,58.7 64.2,58.7 64.6,58.5 				"/>
				<polygon fill="#A4A4A4" points="27.5,40.8 27.5,40.8 27.4,40.9 27.5,40.8 				"/>
				<polygon fill="#A4A4A4" points="60.5,44.9 60.5,44.9 60.6,45 60.6,45 60.6,45 60.6,45 60.4,45 60.4,45 60.4,45 60.4,45 
					60.4,44.9 60.5,44.9 				"/>
				<polygon fill="#A4A4A4" points="47.3,40.8 47.3,40.9 47.3,40.9 47.3,40.9 				"/>
				<polygon fill="#A4A4A4" points="75,59.8 75,59.8 75,59.8 75,59.8 75,59.8 75,59.8 75,59.8 75,59.8 75,59.8 75,59.8 75,59.8 
					75,59.8 75,59.8 75,59.8 				"/>
			</g>
			<polygon fill="#C6CDC7" points="48.6,46.6 48.6,46.6 48.6,46.6 48.6,46.6 48.7,46.5 48.7,46.5 48.7,46.5 48.8,46.5 48.9,46.6 
				48.9,46.6 48.9,46.8 48.9,46.8 48.9,47.1 48.9,47.2 48.9,47.3 48.9,47.4 48.9,47.4 48.9,47.4 48.9,47.6 48.9,47.6 48.9,47.6 
				48.9,47.6 48.9,47.6 48.9,47.6 48.8,47.6 48.5,47.5 48.5,47.5 48.5,47.3 48.5,47.2 48.5,47 48.5,46.8 48.4,46.7 			"/>
			<g>
				<polygon fill="#010101" points="50.2,36.1 50.3,36 50.3,36 50.2,36.1 				"/>
				<polygon fill="#010101" points="45.4,36.8 45.5,36.8 45.7,36.9 46.5,36.6 46.6,36.6 47.1,36.8 47,37.2 46.9,37.2 46.6,36.8 
					46.5,36.8 46.6,36.8 46.5,36.7 46.5,36.7 46.4,36.7 46.3,36.8 46.3,37.5 46.3,37.6 46.4,37.6 46.5,37.6 46.5,37.5 46.5,37.5 
					46.5,37.3 46.5,37.5 46.9,37.8 47,37.9 47,38.1 46.7,38 46.6,38 46.6,38 46.6,38 45.8,37.6 45.4,37.3 45.3,37.1 45.2,36.9 
					45.3,36.8 				"/>
				<polygon fill="#010101" points="45.2,36 45.2,36.2 45.1,36.2 45.1,36.2 				"/>
				<polygon fill="#010101" points="45.4,35.9 45.4,35.9 45.4,35.9 				"/>
				<polygon fill="#010101" points="45.2,35.6 45.2,35.6 45.2,35.6 45.2,35.6 				"/>
				<polygon fill="#010101" points="50,36.3 50,36.4 50,36.4 50,36.5 49.8,36.4 				"/>
			</g>
			<polygon fill="#D2D3D4" points="28.2,44.3 28.5,44.3 28.8,44.3 29.4,44.5 30.3,44.7 30.9,44.9 31.6,45.1 31.8,45.3 32.5,45.6 
				33.3,46.1 35.2,47.1 35.4,46.9 35.6,46.7 35.6,46.7 35.6,46.7 35.7,46.7 36,46.6 36,46.6 36.6,46.7 36.9,46.8 37,46.8 37.1,46.8 
				37.3,47 37.5,47.1 38.5,47.8 39.9,48.6 41.2,49.4 41.9,49.8 42,49.8 42.2,49.9 42.5,50.4 42.7,50.5 42.7,50.6 42.7,50.6 
				42.7,50.7 42.6,50.9 42.6,51 42.6,51 42.7,51.5 42.6,51.5 42.5,51.8 42.5,51.8 41.6,51.4 41.5,51.4 41.4,51.3 41.4,51.4 
				41.4,51.5 41.2,51.6 40.5,51.4 40.3,51.3 40.2,51.3 40.1,51.2 39.9,51.1 39.8,51.1 39.8,51 39.7,51 39.5,50.9 39.4,50.8 
				39.4,50.8 38.9,50.6 37.8,50 37.5,49.8 33.4,47.5 32.9,47.2 31.5,46.4 31.1,46.2 30.8,46 30.3,45.7 30.2,45.7 30.2,45.7 
				29.4,45.4 29.4,45.4 29.3,45.3 28.9,45.2 28.9,45.2 28.6,45 28.2,44.7 28.2,44.5 			"/>
			<polygon fill="#BABABA" points="49,52.3 49,52.3 48.9,52.2 48.6,51.8 48.5,51.7 47.9,51.2 47.8,51 44.9,48.9 44.9,48.8 
				44.8,48.7 43.9,48.2 43.7,48 42.9,47.6 41.2,46.5 41,46.4 40.8,46.3 39.4,45.6 39.1,45.5 37.7,44.9 37.5,44.7 37.4,44.7 
				36.3,44.2 36,44.2 35,43.9 34.8,43.8 34.4,43.7 33.5,43.5 33.5,43.5 33.1,43.4 32.6,43.6 32.5,43.7 32.4,43.8 31.9,44.1 
				31.4,44.4 31,44.7 30.9,44.9 31.6,45.1 31.8,45.3 32.5,45.6 33.3,46.1 35.2,47.1 35.4,46.9 35.6,46.7 35.6,46.7 35.6,46.7 
				35.7,46.7 36,46.6 36,46.6 36.6,46.7 36.9,46.8 37,46.8 37.1,46.8 37.3,47 37.5,47.1 38.5,47.8 39.9,48.6 41.2,49.4 41.9,49.8 
				42,49.8 42.2,49.9 42.5,50.4 42.7,50.5 42.7,50.6 42.7,50.6 42.7,50.7 42.6,50.9 42.6,51 42.6,51 42.7,51.5 42.6,51.5 42.5,51.8 
				42.5,51.8 41.6,51.4 41.5,51.4 41.4,51.3 41.4,51.4 41.4,51.5 41.2,51.6 40.5,51.4 40.3,51.3 41.6,52.1 43.1,53.2 43.7,53.8 
				43.8,53.8 43.8,53.9 46.4,54.1 46.7,54 47.2,53.8 47.7,53.5 48.5,53.1 48.5,53.1 48.7,53 49.1,52.8 49.1,52.8 49.1,52.7 
				49.1,52.6 			"/>
			<g>
				<polygon fill="#BDBEC1" points="47.2,41.2 47.2,41.2 47.2,41.2 47.2,41.2 				"/>
				<path fill="#BDBEC1" d="M53.7,49L53.7,49L53.7,49l0-0.2v-0.1v0l0-1.5v0l-1.1-1.1l-0.4-0.4l-0.1-0.1l-0.1-0.1l-0.4-0.4l-0.5-0.5
					l-0.3,0l-0.5,0l0,0l-0.3-0.2l0,0l-0.2-0.1L49,43.9l-0.1,0l-0.4-0.2l-0.1-0.1l0,0l-0.7-0.4L47.3,43l-0.4-0.3l-0.8-0.5l0,0l-0.1,0
					L45,41.4l-0.3-0.1l-1.2-0.5l-1.2-0.4L42,40.3l-0.2,0l0,0l-0.2,0.2l-0.2,0.4l-0.2,0.5l-0.1,0.6L41,42.4l0,0.4l0.1,0.2l0.1,0
					l1,0.6l0.5,0.4l0.3,0.2l0.1,0.1l0.1,0.1l0,0l1.1,0.8l0.2,0.1l0.2,0.1l0.1,0l0.2,0.1l2.8,1.3l0,0l0.2,0.1l0.1,0l0,0l0,0l0,0
					l0-0.2l0,0l0-0.1l0,0l0,0l0.4-0.1l0.1,0l0.2-0.1l0,0l0,0l0,0l0,0l0,0l0,0l0,0l0.1,0.1l0,0l0,0.2l0,0l0,0.3l0,0l0,0.1l0,0.1
					l0,0.1l0,0l0,0.1l0,0l0,0l0,0l0,0l0,0l0,0.1l0.1,0.3l-0.1-0.6l3.6,1.4l0.1,0.3L49,48.1l0.4,0.3l0.3,0.1l3,0.9l0.1,0l0,0l0.3,0
					l0.1,0l0,0l0.1,0l0,0l0,0l0,0l0,0l0.1,0l0.1,0l0,0l0.1,0L53.7,49z M52.6,48.5L49,46.8l0.4-0.8l3.4,2L52.6,48.5z M53.5,48.2
					l0,0.8l-0.3,0.1l-0.3,0L52.7,49l0,0l0-0.1l0-0.1l0-0.2l0.1-0.1l0.1-0.3l0,0l0.2-0.3l0.1-0.1l0.2-0.2L53.5,48.2z M53.2,47.6
					L50,45.3l0.7-0.5l3,2.5L53.2,47.6z"/>
				<polygon fill="#BDBEC1" points="44.7,37.1 44.7,37.1 44.8,37 44.9,37 44.9,37 46.5,38.5 46.6,38.6 46.6,38.7 46.6,38.7 
					46.6,38.8 				"/>
				<g>
					<path fill="#BDBEC1" d="M47.2,39.2l-0.6-0.6l-0.1,0.8l-2.4-1.7l0.7-0.5l0.1-0.2l-2-0.8l0,0l0,0l-0.7-0.4l-0.2-0.1l-0.1,0
						l-0.4-0.2l-0.9-0.5l0,0l-0.1,0l-0.6-0.3l-0.4-0.2l-0.1-0.1L39.1,34l-0.7-0.4l-0.2-0.1L38,33.5l-0.2-0.1l-0.3-0.1l-0.2-0.1
						l-0.2-0.1l0,0l-0.2-0.1l-0.1,0h0l0,0L35.1,33l0,0L35,33.2l0,0.1l-0.2,0.3L34.7,34l0,0.6l0,0.5l0.1,0.4l0.1,0.3l0.1,0l0.1,0
						l1,0.5l0.2,0.1l0.8,0.5l1.1,0.5l1.6,0.9l0.5,0.3l0,0l0.3,0.2l0.4,0.1l0.3,0.1l0.3,0.1l0.1,0l0,0l0,0l0-0.1l0-0.1l0-0.1l0,0
						l0-0.1l0,0l0.2,0l0.2,0l0.1-0.1l0,0l0,0l0.1-0.1l0.1-0.1l0.1,0.1l0,0l0,0.2l0,0l0,0.3l0,0l0,0.2l0,0l0,0l0,0l0,0.1l0,0l0,0l0,0
						l0,0l0,0l0,0l0.2,0.5l-0.1-0.6l3.6,1.4l0.1,0.3L42.6,40l0.1,0.1l0.3,0.3l1.2,0.3l0.7,0.2l0.9,0.3l0.5,0.2l0,0l0,0l0,0l0,0
						l0.1,0.1l0.3,0l0.4-0.2L47.2,39.2z M42.6,38.7L43,38l3.4,2l-0.2,0.5L42.6,38.7z M46.9,41l-0.2,0.1l-0.2,0L46.4,41l0-0.1
						l0.1-0.3l0.2-0.4l0.3-0.3l0,0L46.9,41z"/>
					<polygon fill="#BDBEC1" points="40.4,38.7 39.8,38.4 39.3,38.1 					"/>
				</g>
			</g>
			<polygon fill="#BDBEC1" points="0.5,3.3 0.8,3.1 4.1,4.5 4.5,4.6 4.6,4.7 4.6,4.7 4.6,4.7 4.9,4.9 5.1,5 5.2,5 5.5,5.2 6.2,5.6 
				6.4,5.7 6.4,5.7 6.8,6.2 7.1,6.6 7.2,6.7 7.4,7.6 7.5,7.8 7.5,7.9 7.5,8 7.5,8 7.5,8.1 7.5,8.8 7.3,9.1 7.9,10.1 8.3,10.8 
				8.4,10.9 13.3,18.7 13.3,18.8 13.4,18.9 13.6,19.3 13.8,19.6 14,19.8 14.1,19.9 13.9,19.6 13.9,19.6 14.1,19.9 14.4,20.2 
				14.4,20.4 14.3,20.4 14.1,20.3 14,20.2 14,20.2 13.9,20.3 13.9,20.4 13.9,20.4 13.8,20.4 13.8,20.4 13.8,20.5 13.9,20.6 
				13.9,20.6 13.9,20.7 13.9,20.7 13.2,20.7 13,20.7 12.7,20.6 12,20.4 12,20.4 12,20.4 10.9,19.6 10.3,19.2 10.2,19.2 9.2,18.4 
				9,18.2 8.7,18 7.9,17.4 7.7,17.3 7.5,17.1 7.5,17.1 7.5,17.1 7.6,17.1 7.8,16.9 7.5,16.6 7.2,16.2 7,15.8 6.8,15.6 6.1,14.7 
				2.6,8 2.7,8 2.9,7.9 3.1,7.8 3.5,7.5 3.6,7.5 3.7,7.5 4.7,6.9 4.8,6.9 5,6.7 5.2,6.6 5.3,6.6 5.3,6.6 5.3,6.6 5.3,6.6 5.3,6.6 
				5.1,5.7 4.7,4.8 4.6,4.9 4.4,5 4.2,5.1 4,5.2 3.7,5.4 3.3,5.6 3.1,5.7 3,5.8 2.6,5.5 2.5,5.5 2,5.2 2,5.2 1.7,5.1 1.7,5.2 
				1.6,5.2 1.1,5.7 1.1,5.7 1,5.8 0.6,5.3 0.2,3.6 			"/>
			<g>
				<polygon fill="#808285" points="52.6,49.2 49,48.1 48.9,47.5 52.5,48.9 				"/>
				<polygon fill="#808285" points="42.6,38.7 43,38 46.4,40 46.2,40.4 				"/>
				<polygon fill="#808285" points="43.9,37.5 44.6,37.2 44.7,37.1 46.6,38.8 47,39.2 46.7,39.5 46.7,39.5 43.9,37.5 				"/>
				<polygon fill="#808285" points="46.1,40.8 46.2,41.2 42.6,40 42.5,39.4 				"/>
				<polygon fill="#808285" points="49,46.8 49.4,46 52.8,48 52.6,48.5 				"/>
				<polygon fill="#808285" points="50.6,44.8 53.6,47.3 53.2,47.6 50,45.3 				"/>
			</g>
			<polygon fill="#E7E7E7" points="46.4,54.1 46.4,54.2 43.2,55.8 41.8,55.4 40.1,54.7 38.4,53.8 30.2,49.1 29.7,48.9 28.1,47.7 
				27.2,46.9 27.3,46.9 27.5,46.8 27.5,46.8 27.5,46.8 26.9,46.3 26.9,46.3 26.9,46.3 26.8,46.3 26.7,46.4 26.3,45.9 26.2,45.6 
				26.2,45.2 26.2,45.1 26.2,45.1 26.3,45 26.7,44.9 26.9,44.8 27.9,44.9 28.8,45.2 29.3,45.3 29.4,45.4 29.4,45.4 30.2,45.7 
				30.3,45.7 30.8,46 31.1,46.2 31.5,46.4 31.5,46.5 31.5,46.7 31.5,46.8 31.7,46.9 33.5,48.1 38.8,51.1 39,51.2 39.6,51.5 
				39.8,51.5 39.9,51.5 39.9,51.5 39.9,51.4 39.9,51.1 40.1,51.2 40.3,51.3 40.3,51.3 41.7,52.1 43.1,53.2 43.7,53.8 43.8,53.8 
				43.8,53.9 46.4,54.1 			"/>
			<polygon fill="#E7E7E7" points="48.4,46.7 48.4,46.7 48.5,46.8 48.5,47 48.5,47.2 48.5,47.3 48.5,47.5 48.5,47.5 48.1,47.6 
				48.1,47.5 48.1,47.5 48.1,47.5 48.1,47.4 48.1,47.3 48.1,47.3 48.1,47.2 48.1,47.1 48.1,47.1 48.1,47 48,46.9 48,46.9 48,46.9 
				48,46.8 48,46.8 48,46.8 			"/>
			<g>
				<polygon fill="#282828" points="63.9,50 63.9,50 63.9,50 64.2,50.4 64.2,50.5 64.3,50.7 64.5,50.9 64.5,50.9 64.9,51.2 
					65.3,51.5 65.3,51.5 65.5,51.6 65.5,51.6 65.7,51.7 65.7,51.8 65.9,51.9 65.9,51.9 65.9,52 65.9,52 65.9,52 65.8,52.1 
					65.8,52.3 65.8,52.3 65.8,52.3 65.8,52.3 65.8,52.3 65.8,52.3 65.8,52.3 65.8,52 65.8,52 65.8,52 65.8,52 65.8,51.9 65.7,52.3 
					65.7,52.3 65.7,52.3 65.7,52.3 65.7,52.3 65.7,52.3 65.7,51.9 65.6,51.9 65.5,51.7 65.4,51.7 65.3,51.6 65.2,51.5 64.9,51.3 
					64.6,51 64.4,50.8 64.5,51.1 64.7,51.6 64.7,51.6 64.7,51.6 64.6,51.4 64.4,51.1 64.1,50.5 64,50.3 63.9,50 63.9,50 				"/>
				<polygon fill="#282828" points="61.8,51.2 61.8,51.2 61.8,51.2 61.8,51.1 62.1,51.6 62.4,52.3 62.6,52.7 62.6,52.8 62.6,52.8 
					62.6,52.8 62.4,52.5 62.3,52.3 62.3,52.1 62.3,52.3 62.3,53 62.3,53.1 62.4,53.2 62.4,53.3 62.4,53.3 62.4,53.4 62.4,53.7 
					62.4,53.8 62.5,53.9 62.7,54 62.6,54.1 62.4,53.8 62.4,53.9 62.4,53.9 62.4,53.9 62.5,54 62.6,54.1 62.6,54.1 62.6,54.1 
					62.6,54.1 62.5,54.1 62.5,54.1 62.5,54.1 62.4,54 62.4,54 62.3,54 62.3,53.7 62.3,53.4 62.3,53.3 62.3,53.2 62.3,53 62.3,52.9 
					62.2,52.3 62.2,52 62,51.7 62,51.6 61.8,51.2 				"/>
			</g>
			<g>
				<polygon fill="#808285" points="63.8,58.7 64,58.6 64,58.6 64.1,58.6 64.2,58.5 64.2,58.5 64.3,58.4 64.3,58.4 64.3,58.4 
					64.6,58.5 64.2,58.7 64.2,58.7 64.1,58.7 64,58.7 63.8,58.8 63.7,58.8 63.7,58.8 63.7,58.8 				"/>
				<polygon fill="#808285" points="41.1,41.6 41.1,41.6 41.2,41.4 41.4,40.9 41.2,41.4 41.1,41.9 41.1,41.8 				"/>
				<polygon fill="#808285" points="41.6,38.6 41.8,38.6 42,38.6 42,38.7 41.6,38.7 41.6,38.8 41.6,38.8 41.6,38.9 42.1,38.8 
					42.1,39 42.1,39.2 42.1,39.3 42.1,39.4 41.7,39.4 41.6,39.3 41.6,39.2 41.6,39.1 41.6,39.1 41.6,39.1 41.6,39 41.6,38.9 
					41.6,38.8 41.6,38.8 41.6,38.7 				"/>
				<polygon fill="#808285" points="5.1,5.7 4.8,5.3 4.6,4.9 4.8,5.3 				"/>
				<polygon fill="#808285" points="59.3,48.6 59.3,48.5 59.3,48.5 59.3,48.1 59.3,47.8 59.3,47.8 59.3,47.8 59.3,47.8 59.3,47.8 
					59.3,48.1 59.3,48.5 59.3,48.5 59.3,48.6 59.3,48.7 59.4,48.8 59.3,48.8 59.2,48.8 59.2,48.7 				"/>
				<polygon fill="#808285" points="55.6,49.4 55.8,49.5 56.2,49.7 56.2,49.7 56.3,49.7 56.3,49.8 56.3,49.8 56.2,49.8 56.1,49.7 
					56.2,49.8 56.2,49.8 56.2,49.8 56.2,49.8 55.8,49.6 55.8,49.6 55.7,49.6 55.7,49.6 55.7,49.5 55.7,49.5 55.6,49.5 55.6,49.5 
					55.6,49.4 55.6,49.4 				"/>
				<polygon fill="#808285" points="62.1,47.1 62.1,47 62.1,46.9 62.1,46.9 62.1,46.8 62.1,46.4 62.1,46.2 62.1,46.2 62.1,46.2 
					62.1,46.4 62.1,46.8 62.1,46.9 62.1,46.9 62.1,47 62.1,47.1 62.2,47.1 62.2,47.2 62.1,47.2 62.1,47.2 62,47.2 62.1,47.1 				"/>
				<polygon fill="#808285" points="41.1,41.9 41,42.4 41,42.3 				"/>
			</g>
			<g>
				<polygon fill="#BABABA" points="75.1,59.8 75.1,59.8 75.1,59.8 				"/>
				<polygon fill="#BABABA" points="67.1,55.6 67.1,55.5 67.1,55.4 67.1,55.2 67.2,55.1 67.2,54.9 67.2,54.8 67.2,54.7 67.2,54.7 
					67.2,54.6 67.8,55 68.7,55.8 74,58.9 74,59 74.6,59.4 74.6,59.4 74.6,59.5 74.8,59.5 74.8,59.5 74.8,59.5 74.9,59.5 74.9,59.5 
					74.9,59.5 75.1,59.8 75.1,59.8 75,59.8 75,59.8 75,59.8 75,59.8 75,59.8 75,59.8 75,59.8 75,59.8 75,59.8 75,59.8 75,59.8 
					75,59.8 75,59.8 75,59.8 75,59.8 75,59.8 75,59.8 75,59.8 75.1,59.8 75.1,59.9 75.1,59.9 75,59.9 75,59.9 75,59.9 75,59.9 
					75,59.9 74.7,59.9 74.7,59.9 74.6,59.8 74.5,59.7 74.4,59.7 74.4,59.7 73.7,59.4 68.4,56.3 68.1,56.2 67.3,55.9 67.3,55.9 
					67.1,55.8 67.1,55.8 67.1,55.7 				"/>
			</g>
			<g>
				<polygon fill="#B6E8FB" points="52.8,49.4 52.8,49.4 53.2,49.4 53.3,49.4 53.4,49.6 53.7,49.6 53.9,49.6 54.4,49.8 54.5,50 
					54.5,50.1 54.3,52.6 54.2,52.7 54.1,52.7 54,52.7 52.8,52 52.7,51.8 52.6,51.7 52.7,51.4 				"/>
				<polygon fill="#B6E8FB" points="43.2,44.4 44.4,45.3 44.6,45.4 44.5,46.5 44.5,46.5 44.4,46.5 44.1,46.3 43.2,45.8 43.1,45.7 
					43.1,45.7 43.2,44.8 				"/>
				<polygon fill="#B6E8FB" points="53.5,49.4 53.4,49.3 53.5,49.3 53.7,49.5 53.7,49.5 				"/>
				<polygon fill="#B6E8FB" points="66,50.5 66.2,51 66.3,51.4 66.5,51.6 66.8,52.3 67,53 67,53.6 67.1,54 67.1,54 67.1,54 
					67.1,54.3 66.9,54.7 66.9,54.1 66.8,53.5 66.7,52.8 66.4,52.1 66,51.5 66.1,51 66,50.8 				"/>
				<polygon fill="#B6E8FB" points="64.1,49.4 64.4,49.1 64.6,48.9 64.7,48.8 64.8,48.6 64.9,48.4 65.7,50 65.8,50.3 65.8,50.5 
					65.8,50.7 65.7,51 65.5,51.3 65.3,51.5 64.9,51.2 64.5,50.9 64.5,50.9 64.3,50.7 64.2,50.5 64.2,50.4 63.9,50 63.9,50 63.9,50 
					63.9,50 63.9,50 64,50.3 64.1,50.5 64.4,51.1 64.6,51.4 64.7,51.6 64.7,51.6 64.7,51.6 64.5,51.1 64.4,50.8 64.6,51 64.9,51.3 
					65.2,51.5 65.1,51.6 64.7,51.9 63.6,49.7 				"/>
				<polygon fill="#B6E8FB" points="56.9,51 57,51 58.6,51.6 58.7,51.8 58.9,52 59.2,54.2 59.2,54.4 59.1,54.5 58.3,54.2 57.7,53.9 
					56.8,53.4 56.6,53.3 56.6,53 56.8,51.1 				"/>
				<polygon fill="#B6E8FB" points="64.6,48.4 64.6,48.5 64.5,48.6 64.2,48.9 64,48.4 63.8,48.1 63.5,47.8 63.3,47.5 63,47.3 
					62.6,47.1 63.1,46.9 63.2,46.9 63.3,46.9 63.6,47.1 63.7,47.2 63.9,47.4 64.1,47.5 64.2,47.6 64.2,47.6 64.3,47.6 64.6,47.9 
					64.7,48 64.7,48.1 				"/>
				<polygon fill="#B6E8FB" points="61.9,50.7 62.7,50.3 63.4,49.9 64.5,52 63.8,52.4 63,52.8 				"/>
				<polygon fill="#B6E8FB" points="37.7,40.3 37.7,40.3 37.7,40.4 37.7,40.5 37.5,40.2 				"/>
				<polygon fill="#B6E8FB" points="60.4,54 60.9,54 61.6,53.9 62.1,54.5 62.5,55.2 62.9,55.7 63.1,56.2 63.3,56.7 62.6,56.9 
					62.1,56.9 61.7,56.9 61.2,56.8 60.8,56.7 60.3,56.6 60.2,56 60.1,55.5 59.9,54.9 59.8,54.3 59.7,53.8 60,53.9 				"/>
				<polygon fill="#B6E8FB" points="59.9,51.2 59.8,51.2 59.3,51.2 58.9,51.2 58.6,51.1 58.3,51 57.8,50.9 57.6,50.8 57.6,50.8 
					57.6,50.8 57.6,50.8 58.1,50 58.5,49.5 59,49.1 59.4,49.4 59.7,49.6 59.9,49.9 60.1,50.2 60.4,50.5 60.6,51 60.2,51.1 				"/>
				<polygon fill="#B6E8FB" points="61.2,57 61.7,57.1 62.1,57.1 62.6,57.1 63.4,56.9 63.5,57.2 63.5,57.7 63.5,58 63.3,58.4 
					63.1,58.5 63.1,58.6 63,58.6 63,58.6 62.9,58.6 62.4,58.8 62.1,58.8 61.8,58.9 61.5,58.8 61.4,58.8 61.2,58.7 61,58.6 
					60.9,58.4 60.8,58.2 60.7,57.9 60.5,57.4 60.4,56.9 60.8,57 				"/>
				<polygon fill="#B6E8FB" points="59.8,51.5 60,51.4 60.3,51.4 60.7,51.2 61.1,51.1 61.7,50.8 62.8,52.9 62.4,53.1 62.4,53.2 
					62.3,53.1 62.3,53 62.3,52.3 62.3,52.1 62.3,52.3 62.4,52.5 62.6,52.8 62.6,52.8 62.6,52.8 62.6,52.7 62.4,52.3 62.1,51.6 
					61.8,51.1 61.8,51.2 61.8,51.2 61.8,51.2 61.8,51.2 62,51.6 62,51.7 62.2,52 62.2,52.3 62.3,52.9 62.3,53 62.3,53.2 61.8,53.4 
					61.2,53.5 60.8,53.6 60.4,53.6 60,53.6 59.5,53.5 59.3,51.6 59.4,51.5 				"/>
				<polygon fill="#B6E8FB" points="30.7,36.3 30.7,36.2 30.8,36.2 32,37 32.1,37 32.1,37.1 31.9,39.1 31.8,39.1 31.8,39.1 
					30.6,38.4 30.5,38.4 30.5,38.3 				"/>
			</g>
			<g>
				<path fill="#F1F2F2" d="M44.5,48.2v0.4l3.3,2.4l0.1,0.1l0.6,0.5l0.1,0.1l0.4,0.5l0,0l0,0.1l0.2,0.3l0,0l0,0.1l0,0.1L48.7,53
					l-0.2,0.1l0,0l6.5,3.7l0.7,0.4l0.9,0.5l0.7,0.3l0.6,0.2l0.3,0.1l0.1,0l1.1,0.5l0.7,0.2l0.2,0l0.8,0l0.3-0.1l0.2-0.1l0.9-0.3l0,0
					l-0.3,0l-0.3,0l-0.2,0l-0.2,0l-0.2-0.1L61,58.6l-0.2-0.2l-0.1-0.2l-0.1-0.4l-0.1-0.5l-0.1-0.5l0.4,0.1l0.4,0.1l0.5,0l0.5,0
					l0.5,0l0.8-0.2l0.1,0.3l0.1,0.5L63.5,58l-0.2,0.3l-0.2,0.2l0.1-0.1l0,0l0,0l0,0l0.1,0l0,0l0.1-0.1l0.1,0l0.1,0l0,0l0,0l0.7-0.4
					l0.1-0.1l0.2-0.1l0.5-0.3l0.4-0.3l0.3-0.2l0.2-0.2l0.2-0.2l0.2-0.3l0.2-0.4l0.4-0.5L67,55.8l-0.1,0.2l-0.1,0.1l0.3-0.3l0,0
					l0-0.1l0-0.1l0-0.1l0-0.2l0-0.1l0-0.2l0-0.1l0-0.1l0-0.1l0-0.1l0,0l-0.1-0.2l0-0.1l0-0.1l0-0.1l0-0.1l0,0l0,0.1l0-0.2l0,0l0,0
					l0,0l0,0.3l-0.2,0.4l0-0.6l-0.1-0.6l-0.1-0.7l-0.3-0.7L66,51.5l0-0.4l0-0.3L66,50.5l-0.1-0.2L65.7,50l0,0.3l0,0.2l0,0.2L65.7,51
					l-0.3,0.3l-0.2,0.2l0.1,0.1l0.1,0.1l0,0l0.2,0.1l0.1,0.1l0.2,0.1l0,0l0,0l0,0l0,0l0,0.1l0,0.2l0,0l0,0l0,0l0,0l0,0l0,0l0-0.3
					l0,0l0,0l0,0l0,0l0,0.3l0,0l0,0l0,0l0,0l0,0l0-0.4l-0.1,0l-0.2-0.1l-0.1-0.1l-0.1-0.1l-0.1-0.1l-0.1,0.1l-0.4,0.3l-1.1-2.1
					l0.5-0.4l0.3-0.2l0.2-0.2l0.1-0.1l0.1-0.1l0.1-0.2l0.9,1.6l-0.8-1.7l0-0.1l-0.1-0.2L64.8,48l0,0l-0.1,0l0,0.2l-0.1,0.3l0,0.1
					l-0.1,0.1l-0.2,0.3L64,48.4l-0.2-0.3l-0.2-0.3l-0.2-0.2L63,47.3l-0.4-0.3l0.5-0.2l0.1,0l-0.1-0.1l-0.3-0.2l-0.1-0.1l-0.3-0.2
					l-0.1-0.1l-0.7-0.5l0,0l-0.3-0.2l-0.2-0.1L60.6,45l0,0l0,0L60.4,45l0,0l0,0l0,0l0,0l0.1,0l-0.2-0.2l0,0l-0.1-0.1l0,0l0,0l-0.1,0
					l0,0l0,0l-0.1-0.1l0,0l0,0l-0.1,0l0,0l-0.1-0.1l0.2,0.2l0.1,0.1l0,0l0.1,0.2l0.4,0.5l0,0.1l0.1,0.4l0,0.1V46l0,0.1l0,0.4l0,0.2
					l0,0.2L60.4,47l-0.1,0.2l0,0l-0.8,0.5l0,0l-0.3,0.1l-0.3,0.1l-0.1,0l-0.4,0l-0.3,0l-0.2,0l-0.4-0.1l0,0l-0.1,0L57,47.7l-0.2-0.1
					l-0.1-0.1l0,0l-0.3-0.1l-1.8-0.8l-0.5-0.3l-3.3-2l-0.5-0.3l-0.6-0.3l0.1,0.3l0.2,0.5l0.5,0l0.3,0l0.5,0.5l0.3-0.1l0.2,0.1
					l0.3,0.3l0.1,0.1l0.2,0.2l0,0.3l0,0l0,0l1.1,1.1v0l0,1.5l1.1-0.6l0.1,0l0,0l0,0.1l-0.1,0.1l-1,0.5L53.7,49l0,0l0,0.3l-0.1,0l0,0
					l0.2,0.1l0.3-0.2l0,0l0,0l0,0l0,0l0,0l0,0l0,0l0,0L54,49.5l0.4,0.2l0.1,0.2l0.1,0.2l-0.2,2.5l-0.1,0.1l-0.1,0l0,0l-1.4-0.8
					l-0.1-0.2l-0.1-0.2l0-0.3l0.2-1.9l-3-0.9l-0.3-0.1L49,48.1l-0.1-0.3l0-0.1l-0.1,0l-0.3-0.1l-0.4,0.1l0-0.1l0-0.2l0-0.2l-0.1,0
					L45,45.7l-0.4,2L44.5,48.2z M59.4,48.8L59.4,48.8l-0.2,0l0-0.1l0,0l0-0.1v0l0-0.5l0-0.3l0,0l0,0l0,0v0l0,0.3l0,0.4v0l0,0.1
					L59.4,48.8L59.4,48.8z M60.6,51l-0.5,0.1l-0.2,0.1l-0.1,0l-0.5,0l-0.4,0l-0.3-0.1L58.3,51l-0.5-0.2l-0.2-0.1l0,0l0,0l0,0
					l0.5-0.8l0.4-0.4l0.5-0.4l0.4,0.3l0.3,0.2l0.2,0.2l0.2,0.3l0.2,0.3L60.6,51z M62.2,47.2L62.2,47.2L62.2,47.2l-0.2,0l0.1-0.1l0,0
					l0,0l0-0.1v0l0-0.1l0-0.4l0-0.2l0,0l0,0l0,0.2l0,0.4l0,0.1v0l0,0.1l0,0L62.2,47.2L62.2,47.2z M63,52.8l-1.1-2.1l0.7-0.4l0.7-0.4
					l1.1,2.1l-0.7,0.4L63,52.8z M59.7,53.8l0.4,0.1l0.4,0.1l0.5,0l0.7,0l0.5,0.6l0.5,0.6l0.4,0.6l0.2,0.5l0.2,0.5l-0.7,0.2l-0.5,0
					l-0.5,0l-0.5-0.1l-0.4-0.1l-0.4-0.1L60.2,56l-0.1-0.5l-0.2-0.5l-0.1-0.6L59.7,53.8z M59.3,51.6l0.1,0l0.3-0.1l0.3,0l0.3-0.1
					l0.4-0.1l0.4-0.2l0.6-0.3l1.1,2.1l-0.4,0.2l-0.1,0l0,0.1v0l0.1,0.2l0,0.3l0,0.1l0.1,0.1l0.2,0.2l0,0l-0.2-0.2l0,0l0,0l0,0
					l0.1,0.1l0.1,0.1l0,0l0,0l0,0l0,0l0,0l0,0L62.4,54l0,0l-0.1,0l0-0.3l0-0.3l0-0.2l0-0.1l-0.5,0.2l-0.6,0.2l-0.5,0l-0.4,0l-0.4,0
					l-0.5,0L59.3,51.6z M56.6,53l0.2-1.9l0.1-0.1l0.1,0l1.6,0.7l0.1,0.2l0.1,0.2l0.4,2.3l0,0.2l-0.2,0.1l-0.7-0.3l-0.6-0.3l-0.9-0.5
					l-0.2-0.1L56.6,53z M55.6,49.4L55.6,49.4L55.6,49.4l0.2,0.1l0.5,0.2l0,0l0.1,0l0,0l0,0l0,0l-0.2-0.1l0.2,0.1l0,0l0,0l0,0
					l-0.4-0.2l-0.1,0l0,0l0,0l0,0L55.6,49.4L55.6,49.4L55.6,49.4L55.6,49.4z"/>
				<polygon fill="#F1F2F2" points="7.2,17.5 7.2,17.5 7.2,17.5 7.2,17.4 7.3,17.4 7.3,17.3 7.5,17.2 7.5,17.2 7.5,17.2 7.5,17.1 
					7.7,17.3 7.9,17.4 8.7,18 9,18.2 9.2,18.4 10.2,19.2 10.3,19.2 10.9,19.6 12,20.4 12,20.4 12,20.4 12.7,20.6 13,20.7 13.2,20.7 
					13.9,20.7 16.3,22.3 18.3,23.5 21.8,25.8 24.2,27.3 26.4,28.7 28.8,30.2 27,29.8 25.5,29.4 25.4,29.4 22.3,28.6 22.2,28.6 
					22.2,28.6 19.7,28 19.3,27.9 18.8,27.8 17.5,27.5 17.1,27.5 16.8,27.4 16.7,27.4 16.7,27.4 16.1,26.5 16.1,26.5 16.1,26.5 
					16.1,26.5 16.1,26.5 16.1,26.5 16.1,26.5 16.1,26.5 16.1,26.5 16.1,26.5 16.1,26.5 16.1,26.5 15.4,25.9 8.5,20.5 7.6,19.4 
					7.5,19.3 7.4,19 7.4,19 7.4,18.9 7.4,18.9 7.4,18.8 7.4,18.8 7.4,18.8 7.4,18.8 7.4,18.7 7.4,18.7 7.3,18.7 7.3,18.7 7.3,18.7 
					7.3,18.6 7.3,18.6 7.3,18.6 7.3,18.6 7.3,18.6 7.3,18.6 7.2,18.2 7.2,17.9 7.2,17.5 				"/>
				<polygon fill="#FFFFFF" points="35.7,30.4 33.3,29.3 32.7,29 31.1,28.3 30.1,27.8 29,27.3 27,26.3 26.4,26 23.8,24.8 23.6,24.7 
					22.5,24.2 19.5,22.8 14.4,20.4 14.4,20.2 14.1,19.9 14,19.8 13.8,19.6 13.6,19.3 13.4,18.9 13.3,18.8 13.3,18.7 21.1,22.1 
					25.4,24.2 28.2,25.7 30.6,27.2 32.5,28.4 34.4,29.5 36.7,30.9 36.4,30.7 				"/>
				<polygon fill="#FFFFFF" points="47.6,42.5 48,43.3 47.3,43 46.9,42.7 47,42.2 				"/>
				<path fill="#F1F2F2" d="M47.1,41.5l-2.2-0.6l-0.7-0.2L43,40.4l-0.3-0.3L42.6,40l-0.2-0.5l-0.2-0.1l-0.1-0.1l-0.4,0.1l0-0.1
					l0-0.2l0-0.1l-0.1,0L41.2,39l-0.3-0.1l-0.4-0.1l-0.1,0l-2.3-1.3l-1.1-0.5l-0.8-0.5l-0.2-0.1l-1-0.5l-0.1,0l-0.2-2.3l-5.1-3
					l-3.5-2l-1.6-0.4l-0.8-0.2L23,27.7l-0.7-0.2l-0.7-0.2l-1.1-0.3L19,26.8l-0.1,0l-2-0.5l-0.2-0.1L15.9,26l-0.2,0l3.5,5l0,0
					l2.1,3.4l0,0l0,0l2.2,2.7l0.2,0.2l0.2,0.2l1.8,1.8l1.7,1.5l0,0l0,0l0,0l0,0l1.6,0.9l2.4,1.4l0,0l0.9,0.5l0,0l0.2-0.1l0.4-0.3
					l0.4,0.1l0,0l0.9,0.2l0.4,0.1l0.2,0.1l1.1,0.3l0.2,0.1l1.2,0.5l0.1,0l0.2,0.1l1.4,0.6l0.3,0.1l1.4,0.7l0.2,0.1l0.2,0.1l1.7,1
					l0.8,0.4l0.3,0.2l0.9,0.6l0.1,0.1l0.2-1.1l0-0.1l0.3-1.7L45,45.7l-0.2-0.1l-0.1,1.5l-0.1,0.1l0,0.1l-0.2,0L43,46.4l-0.1-0.2
					L42.8,46l0.2-1.5l0-0.2l-0.3-0.2l-0.5-0.4l-1-0.6l-0.1,0L41,42.8l0-0.4l0-0.2l0-0.3l0-0.1l0.1-0.2l0,0l0.1-0.2l0.2-0.5l0.2-0.4
					l0.2-0.2l0,0l0.2,0l0.3,0.1l1.2,0.4l1.2,0.5l0.3,0.1l1.1,0.7l1.9,1.2l-0.7-1.7L47.1,41.5z M30.3,38.9l-0.1-0.2l0.2-2.5l0.1-0.1
					l0.2,0l0.8,0.5l0.6,0.3l0.1,0.2l0,0.2l0,0l-0.2,2.5L32,39.8l-0.2,0L30.4,39L30.3,38.9z"/>
			</g>
			<g>
				<polygon fill="#A7A9AC" points="63.4,58.4 63.4,58.4 63.5,58.3 63.6,58.3 63.6,58.3 63.6,58.3 63.6,58.4 63.6,58.5 63.6,58.5 
					63.7,58.6 63.8,58.7 63.8,58.7 63.7,58.8 63.7,58.8 63.7,58.8 63.8,58.8 63.8,58.8 63.8,58.9 63.8,59 63.8,59.1 63.7,59.1 
					63.7,59.1 63.7,59.1 63.6,58.8 63.6,58.8 63.5,58.7 63.5,58.7 63.5,58.7 63.5,58.7 63.5,58.7 63.4,58.6 63.4,58.6 63.4,58.5 
					63.3,58.5 63.3,58.5 63.3,58.4 				"/>
				<path fill="#A7A9AC" d="M30.2,38.6l0.1,0.2l0.1,0.2l1.4,0.8l0.2,0l0.1-0.1l0.2-2.5l0,0l0-0.2l-0.1-0.2l-0.6-0.3l-0.8-0.5l-0.2,0
					l-0.1,0.1L30.2,38.6z M30.3,38.6l0.2-2.5l0.1-0.1l0.1,0l1.1,0.6l0.3,0.2l0.1,0.1l0,0.1l0,0.1L32,39.6l-0.1,0.1l-0.1,0L30.5,39
					l-0.1-0.1L30.3,38.6z"/>
				<polygon fill="#A7A9AC" points="43,44.3 43.1,44.3 43.1,44.6 42.9,46 43,46.2 43.1,46.3 44.4,47.1 44.5,47.1 44.5,47.1 44.6,47 
					44.7,45.5 44.8,45.6 44.7,47.1 44.6,47.2 44.6,47.2 44.4,47.2 43,46.4 42.9,46.2 42.8,46 43,44.5 				"/>
				<polygon fill="#A7A9AC" points="62.7,58.9 62.8,58.8 62.8,58.8 62.9,58.9 63,59 63.1,59.1 63.2,59.2 63.2,59.4 63.2,59.5 
					63.2,59.5 63.1,59.5 63.1,59.5 63,59.5 62.9,59.5 62.8,59.4 62.7,59.3 62.7,59.2 62.6,59 62.7,58.9 				"/>
			</g>
		</g>
	</g>
	<path fill="#484949" d="M57.5,41.1l-0.1,0.4l-0.2,0.2l-0.6,0.5L56.4,42l-1.7-1.2l-0.3-0.2l-0.5-0.3l-0.2-0.2l0,0l-1-0.7l-0.4-0.1
		l-0.9-0.5l0.1-0.1c-0.1,0.1-0.4,0.5-0.5,0.6l-0.2-0.1l0,0l-1.2-0.7l-0.2-0.1l0.1-1.1l1.2-0.4l6.7,4.1L57.5,41.1z"/>
	<g>
		<polygon fill="#FFFFFF" points="46.3,41.4 46.2,41.7 46,41.6 44.9,40.9 45.8,41.2 		"/>
		<polygon fill="#FFFFFF" points="47.2,41.6 47.6,42.5 47,42.2 47.2,41.6 		"/>
		<polygon fill="#FFFFFF" points="60.6,46 60.6,46 60.6,45.9 60.6,45.9 60.5,45.4 60.5,45.4 60.1,44.9 60,44.7 59.9,44.7 59.9,44.6 
			59.7,44.4 59.6,44.3 59.6,44.3 59.6,44.3 59.5,44.2 59.5,44.2 59.5,44.2 59.3,44 58.4,43.4 57.8,42.9 57.6,42.8 56.7,42.2 
			56.7,42.1 53.3,39.8 51.5,38.5 51.5,38.5 50.7,37.6 50.4,35.1 48.4,35.2 47.8,35.2 47.8,35.2 45.2,35.6 45.2,35.6 45.1,35.4 
			45.2,34.2 45.5,33.8 46.1,33.5 45.1,32.7 43.2,31.5 41.1,30.8 40,30.8 39,31 38.3,31.3 38,31.5 38,31.5 36.3,32.4 36.8,33.1 
			36.8,33.1 36.8,33.2 36.8,33.2 36.8,33.2 36.9,33.2 37.1,33.2 37.1,33.2 37.3,33.3 37.5,33.4 37.8,33.4 38,33.5 38.3,33.6 
			38.4,33.6 39.1,34 39.3,34.1 39.5,34.2 39.9,34.4 40.5,34.8 40.5,34.8 40.5,34.8 41.4,35.3 41.8,35.5 41.9,35.6 42.1,35.7 
			42.8,36.1 42.8,36.1 42.8,36.1 43.4,36.5 43.4,36.5 43.6,36.5 44.3,36.8 44.9,37 45,37 46.5,38.5 47,39 47.1,39.1 47.2,41 
			47.5,41 47.6,41 47.8,41 48.4,41.4 48.6,41.5 48.9,41.9 49,42 49.6,43.2 49.8,43.8 50.3,44.1 50.8,44.4 54.1,46.3 54.6,46.6 
			56.4,47.4 56.6,47.5 56.6,47.5 56.8,47.6 57,47.7 57.3,47.8 57.4,47.8 57.5,47.8 57.9,47.9 58.1,47.9 58.4,47.9 58.8,47.9 
			58.8,47.8 59.2,47.8 59.4,47.7 59.4,47.7 60.3,47.2 60.3,47.2 60.4,47 60.6,46.8 60.6,46.6 60.7,46.4 		"/>
		<polygon fill="#FFFFFF" points="42.5,39.5 42.2,39.4 42.4,39.5 		"/>
	</g>
	<path fill="#BDBEC1" d="M50.5,36c0,0.9-1.3,1.7-2.8,1.7s-2.8-0.7-2.8-1.7v-1.1h5.7V36z"/>
	<ellipse fill="#F1F2F2" cx="47.7" cy="34.9" rx="2.8" ry="1.7"/>
</g>
</svg>
