<?xml version="1.0" encoding="utf-8"?>
<!-- Generator: Adobe Illustrator 17.1.0, SVG Export Plug-In . SVG Version: 6.00 Build 0)  -->
<!DOCTYPE svg PUBLIC "-//W3C//DTD SVG 1.1//EN" "http://www.w3.org/Graphics/SVG/1.1/DTD/svg11.dtd">
<svg version="1.1" id="Layer_1" xmlns="http://www.w3.org/2000/svg" xmlns:xlink="http://www.w3.org/1999/xlink" x="0px" y="0px"
	 viewBox="0 0 75.1 46.9" enable-background="new 0 0 75.1 46.9" xml:space="preserve">
<g>
	<g>
		<path fill="#414042" d="M4.9,17.5l2.7-7.1l1.7-4.3c4.5,12.6,11,14.1,25.5,11l-0.3,2.7C25.5,23,8.7,25.1,4.9,17.5z"/>
		<path fill="#414042" d="M69.5,17.5l-2.7-7.1l-1.7-4.3c-4.5,12.6-11,14.1-25.5,11l0.3,2.7C48.9,23,65.7,25.1,69.5,17.5z"/>
	</g>
	<path fill="#A7A9AC" d="M35,20.6c0.6-0.4-4.5,0.3-10.6,1c-7.7,0.9-17.3,1.9-20.9,5.5c-3.6,3.6-4.3,12.8-2.8,19c0,0,0.9-10.3,5-11.6
		C4.9,39.2,8.4,44.9,10,46.9c-0.2-2.4-1.4-8.8,1.7-12.8c0.3-0.4,0.6-0.7,1-1.1c0.6-0.5,1.3-1,2.1-1.3C21.5,28.5,28.9,24.5,35,20.6z"
		/>
	<path fill="#808285" d="M12.7,33c-0.4,0.3-0.7,0.7-1,1.1c-3.1,4-1.9,10.4-1.7,12.8c-1.7-2-5.2-7.7-4.2-12.4c-4.1,1.4-5,11.6-5,11.6
		c-1.4-5.8-0.9-14.2,2.1-18.3L12.7,33z"/>
	<path fill="#A7A9AC" d="M40.1,20.6c-0.6-0.4,4.5,0.3,10.6,1c7.7,0.9,17.3,1.9,20.9,5.5c3.6,3.6,4.3,12.8,2.8,19
		c0,0-0.9-10.3-5-11.6c0.9,4.7-2.6,10.4-4.2,12.4c0.3-3,2-12.1-4.8-15.2S46.2,24.5,40.1,20.6z"/>
	<path fill="#808285" d="M62.5,33c0.4,0.3,0.7,0.7,1,1.1c3.1,4,1.9,10.3,1.7,12.7c1.6-1.9,5.1-7.7,4.2-12.3c4,1.3,5,11.5,5,11.5
		c1.4-5.7,0.9-14.2-2.1-18.1L62.5,33z"/>
	<path fill="#808285" d="M64.6,3C57.8-4,51.9,3,48.8,7c-3.1,4.1-7.2,10.1-11.4,10.1c0,0-0.1,0.1-0.1,0.3c-0.1-0.2-0.1-0.3-0.1-0.3
		c-4.2,0-9.4-6.1-12.5-10.1S15.6-4,8.8,3L4.9,17.5c3.7-3.5,13.8-2.2,19,0.7c5.2,2.9,11.4,2.6,12.9,2c0.2-0.1,0.4-0.2,0.5-0.4
		c0.1,0.2,0.3,0.3,0.5,0.4c1.5,0.6,7.7,0.9,12.9-2c5.2-2.9,15.3-4.2,19-0.7L64.6,3z"/>
	<path fill="#A7A9AC" d="M41.1,22h-8.3c0,0-0.7-1.7-0.7-3.3c0-1.7,0.6-3.3,0.6-3.3s2.1,0.7,4.1,0.7s4.2-0.7,4.2-0.7s0.9,1.8,0.9,3.6
		S41.1,22,41.1,22z"/>
	<path fill="#414042" d="M41.9,19c0,1.8-0.8,3-0.8,3s-2.5,0.5-4.3,0.5c-1.7,0-4-0.5-4-0.5s-0.7-1.7-0.7-3.3
		C33.8,21.1,39.2,21.2,41.9,19z"/>
	<path fill="#A7A9AC" d="M24,18.3C18.8,15.3,8.7,14,5,17.5L8.9,3c4.5-4.6,8.6-3.1,11.8-0.4C20.6,2.6,19,14.4,24,18.3z"/>
	<path fill="#A7A9AC" d="M49.6,18.6c5.9-3.6,16.1-4.4,19.8-0.9L64.8,3C60.3-1.6,56-0.2,52.9,2.6C52.9,2.6,54.6,14.8,49.6,18.6z"/>
</g>
</svg>
