<?xml version="1.0" encoding="utf-8"?>
<!-- Generator: Adobe Illustrator 17.1.0, SVG Export Plug-In . SVG Version: 6.00 Build 0)  -->
<!DOCTYPE svg PUBLIC "-//W3C//DTD SVG 1.1//EN" "http://www.w3.org/Graphics/SVG/1.1/DTD/svg11.dtd">
<svg version="1.1" id="Layer_1" xmlns="http://www.w3.org/2000/svg" xmlns:xlink="http://www.w3.org/1999/xlink" x="0px" y="0px"
	 viewBox="0 0 366.7 60.5" enable-background="new 0 0 366.7 60.5" xml:space="preserve">
<g>
	<path fill="#F1F2F2" d="M61.7,3.8C60.6,3.8,34.8,0,34.8,0c-1.8-0.3-2.6,0.8-1.8,2.5l1.1,2.1c0.8,1.6,3,3.3,4.7,3.8
		c0,0,19.1,5,19.3,4.8c0.1-0.1,2.8,2.7,0.4,2.9c-4.2,0.3-17.7,0.1-17.7,0.1C39,16,36,16,34.2,16h-29c-1.8,0-3.3,1.5-3.3,3.3v1.4
		c0,1.8,1.5,3.3,3.3,3.3h29c1.8,0,3.3,0.8,3.3,1.7c0,0.9-1.5,1.7-3.3,1.7H3.3c-1.8,0-3.3,1.5-3.3,3.3l0,2.9c0,1.8,1.5,3.3,3.3,3.3
		h30.9c1.8,0,3.3,0.2,3.3,0.4c0,0.2-1.5,0.4-3.3,0.4H3.6c-1.8,0-3.3,1.5-3.3,3.3v2.9c0,1.8,1.5,3.3,3.3,3.3h30.6
		c1.8,0,3.3,0.2,3.3,0.4S36,48,34.2,48h-24c-1.8,0-3.3,1.5-3.3,3.3v2.6c0,1.8,1.5,3.3,3.3,3.3H103c1.8,0,3.3-0.3,3.3-0.6
		s1.5-0.6,3.3-0.6h1c1.8,0,3.4-1.5,3.6-3.3l2.9-33.9c0.2-1.8-1.2-3.3-3-3.3H86c-1.8,0-4.6-0.8-6.1-1.7C79.9,13.9,63.3,3.8,61.7,3.8z
		"/>
	<path fill="#F1F2F2" d="M117.9,14.1v44.1H103V25.2c0,0-0.6-11.1,7.5-11.1S117.9,14.1,117.9,14.1z"/>
	<rect x="115.1" y="12.4" width="251.6" height="48.2"/>
	<circle fill="#BCBEC0" cx="109.4" cy="20.7" r="1.6"/>
</g>
</svg>
